<?xml version="1.0" encoding="UTF-8"?>
<svg width="185px" height="177px" viewBox="0 0 185 177" version="1.1" xmlns="http://www.w3.org/2000/svg" xmlns:xlink="http://www.w3.org/1999/xlink">
    <!-- Generator: Sketch 57.1 (83088) - https://sketch.com -->
    <title>undraw_hiring_cyhs</title>
    <desc>Created with Sketch.</desc>
    <defs>
        <filter x="-6.5%" y="-7.1%" width="113.0%" height="114.1%" filterUnits="objectBoundingBox" id="filter-1">
            <feOffset dx="0" dy="2" in="SourceAlpha" result="shadowOffsetOuter1"></feOffset>
            <feGaussianBlur stdDeviation="2" in="shadowOffsetOuter1" result="shadowBlurOuter1"></feGaussianBlur>
            <feColorMatrix values="0 0 0 0 0   0 0 0 0 0   0 0 0 0 0  0 0 0 0.5 0" type="matrix" in="shadowBlurOuter1" result="shadowMatrixOuter1"></feColorMatrix>
            <feMerge>
                <feMergeNode in="shadowMatrixOuter1"></feMergeNode>
                <feMergeNode in="SourceGraphic"></feMergeNode>
            </feMerge>
        </filter>
        <linearGradient x1="0%" y1="50%" x2="100%" y2="50%" id="linearGradient-2">
            <stop stop-color="#808080" stop-opacity="0.25" offset="0%"></stop>
            <stop stop-color="#808080" stop-opacity="0.12" offset="54%"></stop>
            <stop stop-color="#808080" stop-opacity="0.1" offset="100%"></stop>
        </linearGradient>
        <linearGradient x1="43.9429995%" y1="99.1659674%" x2="55.9255489%" y2="0.586791248%" id="linearGradient-3">
            <stop stop-color="#808080" stop-opacity="0.25" offset="0%"></stop>
            <stop stop-color="#808080" stop-opacity="0.12" offset="54%"></stop>
            <stop stop-color="#808080" stop-opacity="0.1" offset="100%"></stop>
        </linearGradient>
        <linearGradient x1="50%" y1="100%" x2="50%" y2="0%" id="linearGradient-4">
            <stop stop-color="#808080" stop-opacity="0.25" offset="0%"></stop>
            <stop stop-color="#808080" stop-opacity="0.12" offset="54%"></stop>
            <stop stop-color="#808080" stop-opacity="0.1" offset="100%"></stop>
        </linearGradient>
        <linearGradient x1="56.5023441%" y1="99.3751341%" x2="43.5229119%" y2="0.63021927%" id="linearGradient-5">
            <stop stop-color="#808080" stop-opacity="0.25" offset="0%"></stop>
            <stop stop-color="#808080" stop-opacity="0.12" offset="54%"></stop>
            <stop stop-color="#808080" stop-opacity="0.1" offset="100%"></stop>
        </linearGradient>
        <linearGradient x1="50%" y1="100%" x2="50%" y2="0%" id="linearGradient-6">
            <stop stop-color="#808080" stop-opacity="0.25" offset="0%"></stop>
            <stop stop-color="#808080" stop-opacity="0.12" offset="54%"></stop>
            <stop stop-color="#808080" stop-opacity="0.1" offset="100%"></stop>
        </linearGradient>
        <linearGradient x1="49.9805854%" y1="99.9997371%" x2="49.9805854%" y2="-0.00873378017%" id="linearGradient-7">
            <stop stop-color="#808080" stop-opacity="0.25" offset="0%"></stop>
            <stop stop-color="#808080" stop-opacity="0.12" offset="54%"></stop>
            <stop stop-color="#808080" stop-opacity="0.1" offset="100%"></stop>
        </linearGradient>
        <linearGradient x1="50%" y1="99.9940751%" x2="50%" y2="0%" id="linearGradient-8">
            <stop stop-color="#808080" stop-opacity="0.25" offset="0%"></stop>
            <stop stop-color="#808080" stop-opacity="0.12" offset="54%"></stop>
            <stop stop-color="#808080" stop-opacity="0.1" offset="100%"></stop>
        </linearGradient>
    </defs>
    <g id="Page-1" stroke="none" stroke-width="1" fill="none" fill-rule="evenodd">
        <g id="Desktop-HD-Copy-7" transform="translate(-602.000000, -1012.000000)" fill-rule="nonzero">
            <g id="undraw_hiring_cyhs" filter="url(#filter-1)" transform="translate(602.000000, 1013.000000)">
                <g id="Group" opacity="0.5" transform="translate(82.000000, 0.000000)" fill="url(#linearGradient-2)">
                    <polygon id="Rectangle" transform="translate(51.379680, 68.431089) rotate(-81.420000) translate(-51.379680, -68.431089) " points="-10.2458356 28.3287734 114.266366 26.5862227 113.005195 108.533405 -11.5070071 110.275955"></polygon>
                </g>
                <polygon id="Rectangle" fill="#F5F5F5" transform="translate(133.697115, 67.773801) rotate(-81.420000) translate(-133.697115, -67.773801) " points="73.6266773 28.909725 195.017487 27.1767875 193.767552 106.637877 72.3767427 108.370814"></polygon>
                <polygon id="Rectangle" fill="#E0E0E0" transform="translate(134.058103, 61.614733) rotate(8.580000) translate(-134.058103, -61.614733) " points="105.355575 59.2484754 162.705949 60.1506052 162.760631 63.9809913 105.410256 63.0788615"></polygon>
                <polygon id="Rectangle" fill="#E0E0E0" transform="translate(132.764918, 71.101746) rotate(8.580000) translate(-132.764918, -71.101746) " points="104.06239 68.7354884 161.412764 69.6376183 161.467446 73.4680044 104.117071 72.5658745"></polygon>
                <polygon id="Rectangle" fill="#E0E0E0" transform="translate(151.910222, 33.542680) rotate(8.580000) translate(-151.910222, -33.542680) " points="137.110504 31.3951157 166.65526 31.8598591 166.709941 35.6902452 137.165185 35.2255018"></polygon>
                <polygon id="Rectangle" fill="#FF6347" transform="translate(150.618053, 43.032136) rotate(8.580000) translate(-150.618053, -43.032136) " points="138.424982 40.925574 162.756442 41.3083114 162.811123 45.1386975 138.479663 44.7559601"></polygon>
                <polygon id="Rectangle" fill="#E0E0E0" transform="translate(128.042327, 80.017730) rotate(8.580000) translate(-128.042327, -80.017730) " points="102.814987 77.7061377 153.214986 78.4989371 153.269667 82.3293232 102.869668 81.5365238"></polygon>
                <polygon id="Rectangle" fill="#E0E0E0" transform="translate(123.318721, 88.933545) rotate(8.580000) translate(-123.318721, -88.933545) " points="101.567597 86.6766336 145.015163 87.3600702 145.069844 91.1904563 101.622279 90.5070197"></polygon>
                <polygon id="Rectangle" fill="#E0E0E0" transform="translate(119.454237, 97.991930) rotate(8.580000) translate(-119.454237, -97.991930) " points="100.309762 95.7760215 138.544031 96.3774522 138.598712 100.207838 100.364443 99.6064076"></polygon>
                <polygon id="Rectangle" fill="#E0E0E0" transform="translate(123.303910, 108.339175) rotate(8.580000) translate(-123.303910, -108.339175) " points="98.9461389 106.041261 147.607 106.806704 147.661682 110.63709 99.0008203 109.871647"></polygon>
                <polygon id="Rectangle" fill="#6C63FF" transform="translate(107.439833, 115.392658) rotate(8.580000) translate(-107.439833, -115.392658) " points="97.8544391 113.327116 116.970545 113.627815 117.025226 117.458201 97.9091205 117.157502"></polygon>
                <g id="Group" opacity="0.5" transform="translate(109.000000, 20.000000)" fill="url(#linearGradient-3)">
                    <path d="M22.8432743,14.8086957 C23.6582375,8.8022571 20.5429604,2.99190723 15.4002588,0.926616234 C10.2575572,-1.13867476 4.51740179,1.11536434 1.68588793,6.31196318 C-1.14562593,11.508562 -0.281172446,18.2027633 3.75123894,22.3057391 C3.75123894,22.3238261 3.75123894,22.3441739 3.75123894,22.3622609 C4.06742556,22.8208451 4.46247494,23.2050929 4.91345133,23.4926957 L4.93584071,23.4384348 C5.39787611,24.0330435 7.52486726,25.2177391 10.0955752,25.6405217 L10.1525664,25.6405217 C11.780885,25.9163478 13.590354,25.8914783 15.2695575,25.2177391 C15.2695575,25.2177391 15.2878761,25.186087 15.3184071,25.1273043 C15.7401455,24.9875208 16.1387893,24.7729901 16.4989381,24.492 L16.5355752,24.3518261 C19.9230578,22.5165474 22.2814987,18.9483828 22.8432743,14.8086957 L22.8432743,14.8086957 Z" id="Path"></path>
                </g>
                <ellipse id="Oval" fill="#F5F5F5" transform="translate(120.578330, 32.054436) rotate(-81.420000) translate(-120.578330, -32.054436) " cx="120.57833" cy="32.0544358" rx="12.3995849" ry="11.2533317"></ellipse>
                <path d="M116.196602,35.0010653 C116.196602,35.0010653 113.041262,34.7779617 113,40.7892244 C113.366302,41.2806655 113.823339,41.6921963 114.34466,42 L117,36.1266103 L116.196602,35.0010653 Z" id="Path" fill="#FDA57D"></path>
                <path d="M124.091415,37 C124.091415,37 127.183354,37.7253886 125.4964,43.2746114 C125.005553,43.6215925 124.450323,43.8681574 123.862923,44 L123,37.8075993 L124.091415,37 Z" id="Path" fill="#FDA57D"></path>
                <path d="M117.352593,27 C117.352593,27 115.61037,30.6506943 115,30.1800549 C115,30.1800549 120.542716,37.2461238 127,32.1576043 C126.497695,30.7822671 125.846472,29.477637 125.060247,28.2715902 L117.352593,27 Z" id="Path" fill="#333333"></path>
                <ellipse id="Oval" fill="#333333" transform="translate(121.075723, 27.763272) rotate(-81.420000) translate(-121.075723, -27.763272) " cx="121.075723" cy="27.7632723" rx="5.49555411" ry="4.98752932"></ellipse>
                <path d="M125.425245,36.3312047 L115.902739,35 L114.440191,38.4083066 C114.440191,38.4083066 113.651965,39.9698308 114.185043,40.7812317 C114.718121,41.5926327 120.515914,44.075435 125.347789,42.4716503 C125.889745,41.5839743 126.102632,40.555852 125.953766,39.5451131 C125.714565,37.8251121 125.846695,39.4098796 125.846695,39.4098796 L125.425245,36.3312047 Z" id="Path" fill="#000000" opacity="0.1"></path>
                <path d="M125.422966,36.3315564 L115.900461,35 L114.440191,38.4070934 C114.440191,38.4070934 113.651965,39.9690302 114.185043,40.7806455 C114.718121,41.5922608 120.515914,44.0757191 125.347789,42.4715108 C125.889745,41.5836002 126.102632,40.5552063 125.953766,39.5442003 C125.714565,37.8237449 125.846695,39.4089311 125.846695,39.4089311 L125.422966,36.3315564 Z" id="Path" fill="#000000" opacity="0.1"></path>
                <path d="M125.425245,36.3312047 L115.902739,35 L114.440191,38.4083066 C114.440191,38.4083066 113.651965,39.9698308 114.185043,40.7812317 C114.718121,41.5926327 120.515914,44.075435 125.347789,42.4716503 C125.889745,41.5839743 126.102632,40.555852 125.953766,39.5451131 C125.714565,37.8251121 125.846695,39.4098796 125.846695,39.4098796 L125.425245,36.3312047 Z" id="Path" fill="#FDD835"></path>
                <path d="M118.12707,33.6815204 L121.607403,33.7362989 L121.656807,37.1970267 C121.668841,38.0399558 121.058449,38.7135298 120.29346,38.7014964 L119.58134,38.6902946 C118.816351,38.6782612 118.186449,37.9851772 118.174416,37.1422482 L118.125012,33.6815204 L118.12707,33.6815204 Z" id="Path" fill="#000000" opacity="0.1" transform="translate(119.890997, 36.191588) rotate(8.580000) translate(-119.890997, -36.191588) "></path>
                <path d="M118.143788,33.5408802 L121.624121,33.5956263 L121.673526,37.0563541 C121.685559,37.8992832 121.075168,38.5728572 120.310178,38.5608238 L119.600116,38.5496544 C118.835127,38.537621 118.205226,37.844537 118.193192,37.001608 L118.143788,33.5408802 L118.143788,33.5408802 Z" id="Path" fill="#FDA57D" transform="translate(119.908744, 36.050931) rotate(8.580000) translate(-119.908744, -36.050931) "></path>
                <path d="M118,33.7895938 C119.194762,34.9055226 120.587983,35.2654791 121.927145,34.8042217 L122,33.9948881 L118.070505,33 L118,33.7895938 Z" id="Path" fill="#000000" opacity="0.1"></path>
                <ellipse id="Oval" fill="#FDA57D" transform="translate(120.914631, 28.944422) rotate(-81.420000) translate(-120.914631, -28.944422) " cx="120.914631" cy="28.9444222" rx="5.49555411" ry="4.98752932"></ellipse>
                <path d="M116,26.3253187 L126,28 C126,28 125.754923,23.3818658 121.936543,23.0245681 C118.118162,22.6672703 116,26.3253187 116,26.3253187 Z" id="Path" fill="#333333"></path>
                <ellipse id="Oval" fill="#FDA57D" transform="translate(116.127114, 27.905518) rotate(-81.420000) translate(-116.127114, -27.905518) " cx="116.127114" cy="27.9055175" rx="1" ry="1"></ellipse>
                <ellipse id="Oval" fill="#FDA57D" transform="translate(125.739394, 29.511689) rotate(-81.420000) translate(-125.739394, -29.511689) " cx="125.739394" cy="29.5116894" rx="1" ry="1"></ellipse>
                <path d="M116,26.3253187 L126,28 C126,28 125.754923,23.3818658 121.936543,23.0245681 C118.118162,22.6672703 116,26.3253187 116,26.3253187 Z" id="Path" fill="#000000" opacity="0.1"></path>
                <g id="Group" opacity="0.5" transform="translate(0.000000, 17.000000)" fill="url(#linearGradient-4)">
                    <polygon id="Rectangle" transform="translate(51.941963, 68.484596) rotate(-9.180542) translate(-51.941963, -68.484596) " points="11.9914548 7.3272885 93.6753193 6.03694848 91.8924704 129.641903 10.208606 130.932243"></polygon>
                </g>
                <polygon id="Rectangle" fill="#F5F5F5" transform="translate(51.830804, 85.521255) rotate(-9.310000) translate(-51.830804, -85.521255) " points="13.0213611 25.5251704 92.5156119 24.1725052 90.6402464 145.517339 11.1459957 146.870004"></polygon>
                <polygon id="Rectangle" fill="#E0E0E0" transform="translate(50.478873, 79.526403) rotate(-9.310000) translate(-50.478873, -79.526403) " points="21.8213066 78.1000731 79.195615 77.1237983 79.1364394 80.9527337 21.762131 81.9290085"></polygon>
                <polygon id="Rectangle" fill="#E0E0E0" transform="translate(51.881176, 88.996018) rotate(-9.310000) translate(-51.881176, -88.996018) " points="23.2236099 87.5696874 80.5979182 86.5934127 80.5387426 90.422348 23.1644343 91.3986228"></polygon>
                <polygon id="Rectangle" fill="#E0E0E0" transform="translate(59.680259, 46.742160) rotate(-9.310000) translate(-59.680259, -46.742160) " points="44.9313043 45.0791627 74.4883901 44.5762227 74.4292145 48.4051581 44.8721287 48.9080981"></polygon>
                <polygon id="Rectangle" fill="#FF6347" transform="translate(61.081550, 56.211959) rotate(-9.310000) translate(-61.081550, -56.211959) " points="48.9403303 54.5045879 73.2819443 54.0903938 73.2227687 57.9193292 48.8811547 58.3335233"></polygon>
                <polygon id="Rectangle" fill="#E0E0E0" transform="translate(49.862284, 99.086065) rotate(-9.310000) translate(-49.862284, -99.086065) " points="24.6813552 97.6005767 75.1023874 96.7426181 75.0432118 100.571553 24.6221796 101.429512"></polygon>
                <polygon id="Rectangle" fill="#E0E0E0" transform="translate(47.842045, 109.174053) rotate(-9.310000) translate(-47.842045, -109.174053) " points="26.1387847 107.629389 69.6044818 106.889782 69.5453062 110.718717 26.0796091 111.458325"></polygon>
                <polygon id="Rectangle" fill="#E0E0E0" transform="translate(46.678351, 119.110544) rotate(-9.310000) translate(-46.678351, -119.110544) " points="27.5828262 117.521507 65.8330514 116.870646 65.7738758 120.699581 27.5236506 121.350443"></polygon>
                <polygon id="Rectangle" fill="#E0E0E0" transform="translate(53.213314, 127.646346) rotate(-9.310000) translate(-53.213314, -127.646346) " points="28.9023174 126.146055 77.5834863 125.317701 77.5243107 129.146637 28.8431418 129.97499"></polygon>
                <polygon id="Rectangle" fill="#FF6347" transform="translate(40.073930, 139.755670) rotate(-9.310000) translate(-40.073930, -139.755670) " points="30.5414767 138.003909 49.6655598 137.678496 49.6063842 141.507431 30.4823011 141.832845"></polygon>
                <g id="Group" opacity="0.5" transform="translate(18.000000, 42.000000)" fill="url(#linearGradient-5)">
                    <path d="M23.8030769,11.3171186 C22.8857461,5.08075018 18.1496264,0.433656727 12.4874675,0.214211839 C6.82530847,-0.0052330501 1.81146321,4.26398688 0.508311639,10.4142974 C-0.794839936,16.564608 1.97504112,22.8859264 7.12615385,25.5172881 L7.1425641,25.5744915 C7.58584375,25.913858 8.08503822,26.1518348 8.61128205,26.274661 L8.61128205,26.2128814 C9.23692308,26.6384746 11.6738462,27.0572034 14.3302564,26.5629661 L14.3876923,26.5629661 C16.0717949,26.2586441 17.8482051,25.5905085 19.3107692,24.3274576 C19.3107692,24.3274576 19.3107692,24.2908475 19.3312821,24.2222034 C19.7072699,23.9341976 20.0390674,23.5803148 20.3138462,23.1742373 C20.3138462,23.1223729 20.3138462,23.0720339 20.3138462,23.0232203 C23.1345835,20.0005334 24.4396747,15.6220524 23.8030769,11.3171186 L23.8030769,11.3171186 Z" id="Path"></path>
                </g>
                <ellipse id="Oval" fill="#F5F5F5" transform="translate(30.363429, 55.639560) rotate(-9.310000) translate(-30.363429, -55.639560) " cx="30.3634291" cy="55.6395596" rx="11.5733448" ry="12.7420011"></ellipse>
                <path d="M26.8849592,62 C26.8849592,62 23.7743304,62.7647059 25.544996,68.2941176 C26.0463208,68.6353807 26.6115897,68.875318 27.207986,69 L28,62.7929412 L26.8849592,62 Z" id="Path" fill="#4D8AF0"></path>
                <path d="M34.779523,59.0017614 C34.779523,59.0017614 37.895288,58.7347652 38,64.775247 C37.6442037,65.2703432 37.1989912,65.6865635 36.689936,66 L34,60.1358827 L34.779523,59.0017614 Z" id="Path" fill="#4D8AF0"></path>
                <ellipse id="Oval" fill="#333333" transform="translate(29.254249, 51.295344) rotate(-9.310000) translate(-29.254249, -51.295344) " cx="29.2542492" cy="51.2953435" rx="5.12975122" ry="5.64774462"></ellipse>
                <path d="M35.9223629,59 L26.2973406,60.6216151 L26.0302283,64.7474671 C26.0302283,64.7474671 25.8057642,66.677189 26.5801655,67.3744834 C27.3545667,68.0717779 33.7899536,68.8756357 37.8954027,65.5953401 C38.1201133,64.4692215 37.9805385,63.2981126 37.4981012,62.2617628 C36.6900303,60.4942024 37.3477102,62.1505664 37.3477102,62.1505664 L35.9223629,59 Z" id="Path" fill="#4D8AF0"></path>
                <path d="M35.9223629,59 L26.2973406,60.6216151 L26.0302283,64.7474671 C26.0302283,64.7474671 25.8057642,66.677189 26.5801655,67.3744834 C27.3545667,68.0717779 33.7899536,68.8756357 37.8954027,65.5953401 C38.1201133,64.4692215 37.9805385,63.2981126 37.4981012,62.2617628 C36.6900303,60.4942024 37.3477102,62.1505664 37.3477102,62.1505664 L35.9223629,59 Z" id="Path" fill="#4D8AF0"></path>
                <path d="M35.9223629,59 L26.2973406,60.6203638 L26.0302283,64.7499767 C26.0302283,64.7499767 25.8057642,66.6782097 26.5801655,67.3749661 C27.3545667,68.0717225 33.7899536,68.87496 37.8954027,65.5971955 C38.1201133,64.4719459 37.9805385,63.3017406 37.4981012,62.2661905 C36.6900303,60.5 37.3477102,62.1550798 37.3477102,62.1550798 L35.9223629,59 Z" id="Path" fill="#4D8AF0"></path>
                <path d="M28.7719133,57.4212441 L32.3504724,57.3603518 L32.2948704,60.9580548 C32.281848,61.8006646 31.6508862,62.4942915 30.8855777,62.5073139 L30.0763868,62.521083 C29.3110783,62.5341054 28.70123,61.861592 28.7142524,61.0189822 L28.7698543,57.4212791 L28.7719133,57.4212441 Z" id="Path" fill="#000000" opacity="0.1" transform="translate(30.532260, 59.940810) rotate(-9.310000) translate(-30.532260, -59.940810) "></path>
                <path d="M28.7509249,57.2768368 L32.329484,57.2159445 L32.273882,60.8136475 C32.2608596,61.6562573 31.6298978,62.3498843 30.8645893,62.3629067 L30.0553984,62.3766758 C29.29009,62.3896982 28.6802416,61.7171847 28.693264,60.8745749 L28.7488659,57.2768719 L28.7509249,57.2768368 Z" id="Path" fill="#FDA57D" transform="translate(30.511272, 59.796403) rotate(-9.310000) translate(-30.511272, -59.796403) "></path>
                <path d="M28.0777143,59.821746 C29.4185147,60.2563974 30.8101,59.890096 32,58.7892986 L31.92,58 L28,59.0548919 L28.0777143,59.821746 Z" id="Path" fill="#000000" opacity="0.1"></path>
                <ellipse id="Oval" fill="#FDA57D" transform="translate(29.435407, 52.508365) rotate(-9.310000) translate(-29.435407, -52.508365) " cx="29.4354073" cy="52.5083653" rx="5.12975122" ry="5.64774462"></ellipse>
                <path d="M25,51 L35,48.9469604 C35,48.9469604 33.4836852,44.0602986 29.7472809,45.1616688 C26.0108765,46.2630389 25,51 25,51 Z" id="Path" fill="#000000" opacity="0.1"></path>
                <path d="M25,51 L35,48.9452027 C35,48.9452027 33.4849776,44.0607171 29.7517579,45.1615968 C26.0185382,46.2624765 25,51 25,51 Z" id="Path" fill="#333333"></path>
                <ellipse id="Oval" fill="#FDA57D" transform="translate(24.517712, 53.498341) rotate(-9.180542) translate(-24.517712, -53.498341) " cx="24.5177117" cy="53.4983409" rx="1" ry="1"></ellipse>
                <ellipse id="Oval" fill="#FDA57D" transform="translate(34.316250, 51.376221) rotate(-9.310000) translate(-34.316250, -51.376221) " cx="34.3162496" cy="51.3762209" rx="1" ry="1"></ellipse>
                <g id="Group" opacity="0.5" transform="translate(61.000000, 37.000000)" fill="url(#linearGradient-6)">
                    <rect id="Rectangle" x="0.128539043" y="0.107208029" width="80.8286146" height="124.856296"></rect>
                </g>
                <rect id="Rectangle" fill="#FFFFFF" x="61" y="38" width="79" height="122"></rect>
                <g id="Group" opacity="0.5" transform="translate(72.000000, 53.000000)" fill="url(#linearGradient-7)">
                    <path d="M0.0483191867,13.49325 C0.0489444811,7.13918793 4.23734085,1.66902486 10.0551713,0.424020797 C15.8730018,-0.820983262 21.7025217,2.5053658 23.9829703,8.37128266 C26.2634189,14.2371995 24.3606796,21.0115683 19.4369748,24.5565 L19.4369748,24.615 C19.0304691,25.0328173 18.5506225,25.3601327 18.0252101,25.578 L18.0084034,25.5195 C17.4264706,26.055 14.9726891,26.91225 12.1533613,26.9033203 L12.092437,26.9033203 C10.3067227,26.9033203 8.3697479,26.56575 6.66386555,25.578 C6.66386555,25.578 6.64915966,25.542 6.62605042,25.47675 C6.19380195,25.259136 5.7972326,24.9681343 5.45168067,24.615 L5.43277311,24.46425 C2.06132386,21.9793199 0.0477039734,17.8765038 0.0483191867,13.49325 Z" id="Path"></path>
                </g>
                <ellipse id="Oval" fill="#F5F5F5" cx="85" cy="67" rx="12" ry="13"></ellipse>
                <path d="M80.1604517,72 C80.1604517,72 77.3909537,72.2567746 78.1232826,78.0399868 C78.5031034,78.4565849 78.951423,78.7828869 79.4422838,79 L81,72.9692664 L80.1604517,72 Z" id="Path" fill="#BE7C5E"></path>
                <path d="M88.8351689,72 C88.8351689,72 91.6102809,72.2567746 90.8764675,78.0399868 C90.4958768,78.4565849 90.0466483,78.7828869 89.5547925,79 L88,72.9507601 L88.8351689,72 Z" id="Path" fill="#BE7C5E"></path>
                <path d="M78.8630185,62 C78.8630185,62 78.6201979,62.7187068 78.2733113,63.5497848 C77.5194111,65.366451 78.3796899,72.3475058 80.1835002,73.0919643 C82.2070053,73.9277244 84.8687818,74.4614872 87.6323117,73.440783 C90.0350796,72.5535195 90.7751043,64.607946 89.0776726,62.6718856 C88.8787909,62.4377791 88.670659,62.2200601 88.4532767,62 L78.8630185,62 Z" id="Path" fill="#333333"></path>
                <ellipse id="Oval" fill="#333333" cx="84.5" cy="61" rx="5.5" ry="6"></ellipse>
                <path d="M88.7671103,72 L79.1045118,72 L78.2019734,75.9570089 C78.2019734,75.9570089 77.6713243,77.7896584 78.3302861,78.595757 C78.9892479,79.4018556 85.1439077,81.2345052 89.667474,78.7271377 C90.0615901,77.6718488 90.1066663,76.5133053 89.7957867,75.4292592 C89.2803611,73.5832489 89.667474,75.2978785 89.667474,75.2978785 L88.7671103,72 Z" id="Path" fill="#000000" opacity="0.1"></path>
                <path d="M88.7714599,72 L79.1045118,72 L78.2019734,75.9570089 C78.2019734,75.9570089 77.6713243,77.7896584 78.3302861,78.595757 C78.9892479,79.4018556 85.1439077,81.2345052 89.667474,78.7271377 C90.0615901,77.6718488 90.1066663,76.5133053 89.7957867,75.4292592 C89.2803611,73.5832489 89.667474,75.2978785 89.667474,75.2978785 L88.7714599,72 Z" id="Path" fill="#000000" opacity="0.1"></path>
                <path d="M88.7671103,72 L79.1045118,72 L78.2019734,75.9570089 C78.2019734,75.9570089 77.6713243,77.7896584 78.3302861,78.595757 C78.9892479,79.4018556 85.1439077,81.2345052 89.667474,78.7271377 C90.0615901,77.6718488 90.1066663,76.5133053 89.7957867,75.4292592 C89.2803611,73.5832489 89.667474,75.2978785 89.667474,75.2978785 L88.7671103,72 Z" id="Path" fill="#3AD29F"></path>
                <path d="M82.0022497,68 L86,68 L86,72.2527045 C86,73.2177091 85.3221319,74 84.4859393,74 L83.5140607,74 C83.1125069,74 82.7273996,73.8159105 82.4434581,73.488229 C82.1595167,73.1605475 82,72.716116 82,72.2527045 L82,68 L82.0022497,68 Z" id="Path" fill="#000000" opacity="0.1"></path>
                <path d="M82.0022497,68 L86,68 L86,72.2527045 C86,73.2177091 85.3221319,74 84.4859393,74 L83.5140607,74 C83.1125069,74 82.7273996,73.8159105 82.4434581,73.488229 C82.1595167,73.1605475 82,72.716116 82,72.2527045 L82,68 L82.0022497,68 Z" id="Path" fill="#BE7C5E"></path>
                <path d="M82,68.5778438 C83.2904921,69.1407187 84.7095079,69.1407187 86,68.5778438 L86,68 L82,68 L82,68.5778438 Z" id="Path" fill="#000000" opacity="0.1"></path>
                <ellipse id="Oval" fill="#BE7C5E" cx="84.5" cy="63" rx="5.5" ry="6"></ellipse>
                <path d="M79,62 L90,62 C90,62 89.0603129,56.6737438 84.9030465,57.0157969 C80.7457802,57.3578501 79,62 79,62 Z" id="Path" fill="#333333"></path>
                <ellipse id="Oval" fill="#BE7C5E" cx="79.5" cy="62.5" rx="1" ry="1.5"></ellipse>
                <ellipse id="Oval" fill="#BE7C5E" cx="89.5" cy="62.5" rx="1" ry="1.5"></ellipse>
                <path d="M79,62 L90,62 C90,62 89.0603129,56.6737438 84.9030465,57.0157969 C80.7457802,57.3578501 79,62 79,62 Z" id="Path" fill="#000000" opacity="0.1"></path>
                <rect id="Rectangle" fill="#E0E0E0" x="72" y="91" width="58" height="4"></rect>
                <rect id="Rectangle" fill="#E0E0E0" x="72" y="101" width="58" height="4"></rect>
                <rect id="Rectangle" fill="#E0E0E0" x="101" y="60" width="29" height="4"></rect>
                <rect id="Rectangle" fill="#FF6347" x="103" y="70" width="25" height="4"></rect>
                <rect id="Rectangle" fill="#E0E0E0" x="72" y="110" width="51" height="4"></rect>
                <rect id="Rectangle" fill="#E0E0E0" x="72" y="121" width="44" height="4"></rect>
                <rect id="Rectangle" fill="#E0E0E0" x="72" y="130" width="38" height="4"></rect>
                <rect id="Rectangle" fill="#E0E0E0" x="72" y="139" width="48" height="4"></rect>
                <rect id="Rectangle" fill="#FF6347" x="72" y="149" width="19" height="4"></rect>
                <g id="Group" opacity="0.5" transform="translate(119.000000, 132.000000)" fill="url(#linearGradient-8)">
                    <ellipse id="Oval" cx="17.5144118" cy="19.0134911" rx="17.3744118" ry="18.9752663"></ellipse>
                </g>
                <ellipse id="Oval" fill="#69F0AE" cx="137.5" cy="150" rx="16.5" ry="18"></ellipse>
                <polygon id="Path" fill="#FFFFFF" points="130.5 148.599125 136.499194 154.570804 144.998388 141 148 143.714598 136.499194 160 128 149.686277"></polygon>
            </g>
        </g>
    </g>
</svg>