<?xml version="1.0" encoding="UTF-8"?>
<svg width="139px" height="143px" viewBox="0 0 139 143" version="1.1" xmlns="http://www.w3.org/2000/svg" xmlns:xlink="http://www.w3.org/1999/xlink">
    <!-- Generator: Sketch 57.1 (83088) - https://sketch.com -->
    <title>Group</title>
    <desc>Created with Sketch.</desc>
    <g id="Page-1" stroke="none" stroke-width="1" fill="none" fill-rule="evenodd" opacity="0.804547991">
        <g id="Desktop-HD-Copy-7" transform="translate(-221.000000, -1022.000000)" fill="#FFFFFF" fill-rule="nonzero">
            <g id="Group-2" transform="translate(65.000000, 988.000000)">
                <g id="Group" transform="translate(156.000000, 34.000000)">
                    <path d="M5.0930853,43.9966158 C3.2784038,44.0037013 1.598141,43.0376624 0.686557573,41.4631566 C-0.225025855,39.8886509 -0.22909349,37.9454794 0.675890106,36.3671449 C7.12065031,25.4679006 26.7083766,0 69.5044809,0 C88.0422181,0 104.298945,4.94099071 117.803976,14.6776489 C128.919377,22.670428 135.146898,31.7168007 138.115833,36.0764983 C138.876241,37.1873441 139.162503,38.5571358 138.910891,39.8809305 C138.659278,41.2047252 137.890676,42.3726409 136.776191,43.1246763 C134.441438,44.6947005 131.283381,44.09649 129.679714,41.7804362 C124.284943,33.9329803 107.919596,10.0999663 69.5044809,10.0999663 C31.9945282,10.0999663 15.0498778,32.043778 9.5102805,41.4534588 C8.6109971,43.0467922 6.91776555,44.0216537 5.0930853,43.9966158 L5.0930853,43.9966158 Z" id="Path"></path>
                    <path d="M90.9456957,143 C90.5208465,143.005093 90.0970165,142.956559 89.6843641,142.85514 C58.7997588,135.091626 47.2675841,103.820911 46.7990895,102.520974 L46.7270134,102.232099 C46.4747471,101.329364 40.2762032,79.8803984 49.7902473,67.3143375 C54.1508508,61.5729477 60.7818513,58.6480887 69.5390964,58.6480887 C77.6836948,58.6480887 83.5578963,61.211854 87.5941574,66.5199314 C90.9096577,70.8530558 92.2430654,76.1972427 93.540435,81.3608826 C96.2432885,92.0853656 98.1893429,97.7184274 109.433213,98.2961773 C114.370426,98.5489429 117.61385,95.6240839 119.45179,93.1325374 C124.42504,86.3439757 125.289953,75.258399 121.541997,65.508869 C116.712899,52.8705894 99.6308648,29.0745143 69.5030584,29.0745143 C56.637476,29.0745143 44.816997,33.2632013 35.3389909,41.135044 C27.4826969,47.6708401 21.2481149,56.8787295 18.2569571,66.3393845 C12.7070981,83.9607573 19.9867833,111.656644 20.0588594,111.90941 C20.4010098,113.2026 20.212594,114.579197 19.5356116,115.732345 C18.8586292,116.885493 17.7493544,117.719336 16.4550548,118.048003 C13.7511655,118.763054 10.9750389,117.171259 10.2204729,114.473175 C9.89613048,113.209347 2.11191256,83.6718823 8.52668473,63.3061974 C15.5180656,41.2433541 37.0688171,19 69.5030584,19 C84.4948855,19 98.6578375,24.16364 110.478317,33.91317 C119.63198,41.4961377 127.127894,51.6789802 131.020003,61.8618226 C135.993253,74.8611959 134.659845,89.4493816 127.632426,98.9822554 C122.94748,105.337505 116.280442,108.659567 108.892643,108.298473 C89.6483261,107.32352 86.1886737,93.7102873 83.6660104,83.7802104 C81.0712711,73.597368 79.413521,68.6864936 69.5030584,68.6864936 C64.0613135,68.6864936 60.2412806,70.2030872 57.8627696,73.3446024 C54.6193454,77.6416175 54.3670791,84.3579604 54.7274596,89.2327254 C54.7310634,89.2836396 54.7347393,89.3344551 54.7384872,89.3851719 C55.2152727,95.5869841 57.0894277,101.599723 60.2199713,106.971089 C65.2228161,115.614278 75.3706974,128.869721 92.2070273,133.105607 C93.5055606,133.420658 94.6245331,134.242726 95.3149137,135.388855 C96.0052942,136.534985 96.2097966,137.910074 95.882908,139.20809 C95.2810105,141.444379 93.2573034,142.998465 90.9456957,143 L90.9456957,143 Z" id="Path"></path>
                    <path d="M51.2654845,141 C49.8552295,141 48.5060837,140.422932 47.5316454,139.400846 C35.0975987,126.171488 28.0649309,111.379322 25.4186178,92.8800278 L25.4186178,92.7709947 C23.9323323,80.5229355 26.1073842,63.1866618 36.7651385,51.2657021 C44.6315762,42.4703599 55.68809,38 69.5721713,38 C85.9938131,38 98.899121,45.7413549 106.946813,60.3517994 C110.583801,67.0710921 112.967071,74.3994658 113.979481,81.976711 C114.228042,84.773118 112.190055,87.2510972 109.404586,87.5393073 C106.619116,87.8275173 104.119308,85.8190597 103.792988,83.0306983 C102.911114,76.6951346 100.884154,70.5739344 97.811595,64.9675369 C91.5764463,53.8098093 82.0787197,48.1400846 69.5359204,48.1400846 C58.6969118,48.1400846 50.2142094,51.447424 44.3778201,57.9894141 C35.9676195,67.4026109 34.3363305,81.9040223 35.4963582,91.498941 C37.8164136,107.853916 44.0153115,120.865208 54.9630727,132.495412 C55.8862794,133.473777 56.3792886,134.782642 56.3315855,136.128607 C56.2838823,137.474573 55.6994571,138.745055 54.7093166,139.655257 C53.7672618,140.515901 52.5399823,140.995127 51.2654845,141 L51.2654845,141 Z" id="Path"></path>
                    <circle id="Oval" cx="69.5" cy="86.5" r="6.5"></circle>
                </g>
            </g>
        </g>
    </g>
</svg>