<?xml version="1.0" encoding="UTF-8"?>
<svg width="602px" height="539px" viewBox="0 0 602 539" version="1.1" xmlns="http://www.w3.org/2000/svg" xmlns:xlink="http://www.w3.org/1999/xlink">
    <!-- Generator: Sketch 57.1 (83088) - https://sketch.com -->
    <title>undraw_creative_process_q6aw</title>
    <desc>Created with Sketch.</desc>
    <g id="Page-1" stroke="none" stroke-width="1" fill="none" fill-rule="evenodd">
        <g id="Desktop-HD-Copy-7" transform="translate(-793.000000, -302.000000)" fill-rule="nonzero">
            <g id="undraw_creative_process_q6aw" transform="translate(793.000000, 302.000000)">
                <ellipse id="Oval" fill="#7A7890" cx="301" cy="502" rx="301" ry="37"></ellipse>
                <polygon id="Path" fill="#3F3D56" points="279 311.176271 279 484.240678 161.436464 504 33 488.328814 33 314.583051 161.436464 303"></polygon>
                <polygon id="Path" fill="#000000" opacity="0.1" points="162 320.118705 162 503 34 487.363309 34 314"></polygon>
                <polygon id="Path" fill="#FFFFFF" opacity="0.1" points="279 311.307692 161.436464 321 33 314.769231 161.436464 303"></polygon>
                <polygon id="Path" fill="#D0CDE1" points="535 429.93617 535 494.617021 452.892857 513 288 499.382979 288 441.510638 290.700714 441.054468 290.951786 441.013617 433.214286 417 533.256071 429.711489"></polygon>
                <polygon id="Path" fill="#000000" opacity="0.1" points="453 450.995647 453 513 288 499.37267 288 441.456516 290.702469 441"></polygon>
                <polygon id="Path" fill="#FFFFFF" opacity="0.1" points="534 429.6956 453.406043 451 291 440.9836 433.67097 417"></polygon>
                <path d="M234,376 L234,508.345977 C263.522035,515.884674 294.477965,515.884674 324,508.345977 L324,376 L234,376 Z" id="Path" fill="#FF0200"></path>
                <ellipse id="Oval" fill="#FF0200" cx="279" cy="375" rx="45" ry="5"></ellipse>
                <ellipse id="Oval" fill="#000000" opacity="0.1" cx="279" cy="375" rx="45" ry="5"></ellipse>
                <path d="M324.287238,193 C324.831899,194.439618 325.408325,195.894882 326,197.324887 L324.731904,198 C324.133545,196.553838 323.551021,195.082962 323,193.627021 L324.287238,193 Z" id="Path" fill="#E6E6E6"></path>
                <path d="M575.800994,80.0265115 C576.692766,81.9285197 577.549197,83.8665295 578.34705,85.7873679 L576.905132,86.3872386 C575.710784,83.5111576 574.389771,80.6128068 572.996143,77.8092658 L574.394735,77.1134093 C574.872912,78.0758056 575.341665,79.0468396 575.800994,80.0265115 Z M569.86676,68.7259332 L568.519038,69.5159265 C566.936751,66.8094454 565.244037,64.1295712 563.488133,61.5485107 L564.778729,60.6690167 C566.554041,63.2788865 568.266151,65.9892764 569.86676,68.7259332 Z M581.705268,94.7067361 C582.720125,97.710141 583.642225,100.781579 584.446088,103.83607 L582.936205,104.2335 C582.141388,101.214392 581.229644,98.1776981 580.225578,95.2080174 L581.705268,94.7067361 Z M559.150548,52.9796879 L557.922598,53.9460926 C555.989722,51.4869586 553.945788,49.0639825 551.847777,46.7448165 L553.004796,45.6953827 C555.127362,48.0417809 557.195174,50.4923224 559.150548,52.9796743 L559.150548,52.9796879 Z M586.553076,113.133304 C587.145843,116.240608 587.637458,119.410581 588.01479,122.554164 L586.465099,122.740977 C586.09134,119.63196 585.60496,116.498294 585.019181,113.425667 L586.553076,113.133304 Z M546.371917,38.8540806 L545.290047,39.9811664 C543.037196,37.8131577 540.681415,35.6968672 538.289445,33.6920072 L539.292581,32.4939925 C541.711267,34.5217069 544.09307,36.6611713 546.371917,38.8540806 Z M588.825145,132.067748 C588.984419,135.23664 589.035385,138.447543 588.975978,141.611703 L587.414268,141.582473 C587.472948,138.454504 587.422797,135.279453 587.265193,132.146446 L588.825145,132.067748 Z M531.790871,26.634166 L530.872737,27.8984803 C528.343278,26.0602292 525.719099,24.2858576 523.073352,22.6270293 L523.90228,21.3017722 C526.578254,22.9801307 529.231932,24.7743453 531.790871,26.634166 Z M588.471147,151.140391 C588.194607,154.299467 587.80588,157.485123 587.314652,160.610189 L585.772234,160.366989 C586.25748,157.277625 586.642601,154.127393 586.916221,151.003401 L588.471147,151.140391 Z M515.667068,16.5217387 L514.930251,17.8998152 C512.173541,16.4229386 509.331699,15.0231497 506.482557,13.7389244 L507.122983,12.3134124 C510.00523,13.6124026 512.879743,15.0280237 515.667068,16.5217387 Z M585.513656,169.977272 C584.810577,173.061904 583.991808,176.163804 583.079548,179.197486 L581.584572,178.746523 C582.486075,175.7474 583.295819,172.680109 583.991224,169.629418 L585.513656,169.977272 Z M498.310839,8.69718005 L497.768339,10.1627111 C494.836212,9.07512087 491.829289,8.07410145 488.830081,7.18833301 L489.27247,5.68890782 C492.305184,6.58507019 495.345939,7.59717013 498.310839,8.69718005 Z M580.023589,188.228428 C578.907261,191.191487 577.674667,194.152678 576.361131,197.029234 L574.941351,196.379359 C576.240456,193.534881 577.458403,190.607123 578.562486,187.677223 L580.023589,188.228428 Z M480.046711,3.30486302 L479.707369,4.83006572 C476.657996,4.15163892 473.541767,3.56957184 470.44629,3.1000094 L470.680387,1.55511329 C473.810925,2.02929828 476.962413,2.61840795 480.046711,3.30486302 Z M572.109573,205.557957 C570.602075,208.340581 568.979069,211.104973 567.287136,213.774439 L565.968188,212.937269 C567.641303,210.29772 569.24598,207.564285 570.737533,204.812333 L572.109573,205.557957 Z M461.21277,0.451486917 L461.085454,2.00859878 C457.965571,1.75281556 454.798409,1.60271873 451.670072,1.56250257 L451.690445,0 C454.854197,0.0404200977 458.0575,0.192094033 461.21277,0.451486917 Z M561.916107,221.639955 C560.044526,224.188535 558.060542,226.703929 556.019766,229.116178 L554.828575,228.106015 C556.845828,225.720842 558.807796,223.233911 560.658359,220.714174 L561.916107,221.639955 Z M442.157587,0.205139133 L442.245747,1.76555476 C439.119575,1.94185056 435.959606,2.22928463 432.853339,2.62048129 L432.658527,1.06970504 C435.800385,0.67358672 438.996598,0.382610962 442.157587,0.205139133 Z M549.627007,236.165916 C547.421788,238.435797 545.109333,240.656585 542.754585,242.767396 L541.713209,241.602541 C544.041439,239.515985 546.327015,237.320485 548.508058,235.076286 L549.627007,236.165916 Z M423.254439,2.58771559 L423.556078,4.12203422 C420.487494,4.72652745 417.402075,5.44600655 414.385258,6.25971084 L413.97931,4.75079583 C417.030462,3.92770369 420.150868,3.20021671 423.254439,2.58771559 Z M535.443298,248.876575 C532.948269,250.819343 530.352816,252.70055 527.729289,254.467193 L526.857605,253.17033 C529.451626,251.423435 532.017586,249.56369 534.4841,247.642742 L535.443298,248.876575 Z M404.875401,7.54583946 L405.383764,9.0234911 C402.432479,10.0416275 399.47454,11.1767076 396.591239,12.3964347 L395.983696,10.9569395 C398.898723,9.72314083 401.8904,8.57558666 404.875401,7.54583946 Z M519.650682,259.514606 C516.91704,261.094831 514.089826,262.603936 511.247516,264 L510.559954,262.596418 C513.371006,261.216302 516.166425,259.723824 518.86946,258.160927 L519.650682,259.514606 Z M388.044995,16.3593106 C385.250065,17.7702072 382.471107,19.2933161 379.785573,20.8863479 L378.989445,19.5421995 C381.70545,17.9306368 384.515531,16.3903768 387.341556,14.9631585 L388.044995,16.3593106 Z M371.853833,25.9667721 C369.276559,27.7466908 366.731712,29.6353005 364.290148,31.5816172 L363.317721,30.359069 C365.786781,28.3905573 368.360476,26.4799633 370.967576,24.6801337 L371.853833,25.9667721 Z M357.131651,37.7050037 C354.82888,39.8171 352.570182,42.0358207 350.419168,44.3000464 L349.287657,43.2230676 C351.463539,40.9328265 353.747757,38.6886342 356.077033,36.5531125 L357.131651,37.7050037 Z M344.175444,51.3451552 C342.181742,53.7572004 340.248357,56.2673728 338.42855,58.8051308 L337.159875,57.8937616 C339.00053,55.3268271 340.956094,52.788532 342.972308,50.3490506 L344.175444,51.3451552 Z M333.204694,66.6440806 C331.55807,69.3087004 329.984645,72.0611758 328.527637,74.8230323 L327.147347,74.0939342 C328.620157,71.3002026 330.211415,68.5165929 331.876551,65.8213623 L333.204694,66.6440806 Z M324.418784,83.3049648 C323.151013,86.1650776 321.965472,89.1062617 320.894875,92.0474186 L319.427912,91.5124743 C320.510597,88.5378311 321.709576,85.5633443 322.991113,82.6706289 L324.418784,83.3049648 Z M317.974625,101.011258 C317.106248,104.022644 316.330724,107.09916 315.670313,110.155323 L314.144391,109.825131 C314.812143,106.734326 315.59604,103.622685 316.474461,100.577922 L317.974625,101.011258 Z M313.993537,119.435277 C313.543067,122.538652 313.194,125.69303 312.956684,128.810891 L311.399571,128.692608 C311.639827,125.538773 311.992501,122.348978 312.448627,119.210064 L313.993537,119.435277 Z M312.565227,138.237434 C312.542376,141.371752 312.629062,144.544812 312.822352,147.66947 L311.264004,147.765925 C311.068527,144.60604 310.981039,141.396252 311.003422,138.225905 L312.565227,138.237434 Z M313.729499,157.062554 C314.137858,160.165432 314.659856,163.29332 315.2809,166.360346 L313.750652,166.671226 C313.122294,163.568858 312.594374,160.404955 312.181431,157.267156 L313.729499,157.062554 Z M317.469543,175.529046 C318.299958,178.543219 319.24605,181.569682 320.282197,184.525135 L318.808232,185.042269 C317.760609,182.053412 316.803801,178.992381 315.963987,175.944688 L317.469543,175.529046 Z" id="Shape" fill="#E6E6E6"></path>
                <path d="M502.402496,267 L503,268.376933 C501.51973,268.943649 500.021854,269.489655 498.547568,270 L498,268.605094 C499.457374,268.100182 500.938663,267.56028 502.402496,267 Z" id="Path" fill="#E6E6E6"></path>
                <circle id="Oval" fill="#FF0200" cx="279" cy="314" r="29"></circle>
                <path d="M45,368 L73.5393172,368 C75.4868943,357.081078 75.4868943,345.918922 73.5393172,335 L45,335 C48.2151772,345.779036 48.2151772,357.220964 45,368 Z" id="Path" fill="#FF0200"></path>
                <path d="M112,403 L83.4606828,403 C81.5131057,392.081078 81.5131057,380.918922 83.4606828,370 L112,370 C108.784823,380.779036 108.784823,392.220964 112,403 Z" id="Path" fill="#FF6584"></path>
                <path d="M98,458 L126.539317,458 C128.486894,447.081078 128.486894,435.918922 126.539317,425 L98,425 C101.215177,435.779036 101.215177,447.220964 98,458 Z" id="Path" fill="#FF0200"></path>
                <path d="M172.239816,259.119303 C194.436514,226.19471 189.203671,182.027937 159.924736,155.176305 C130.645802,128.324674 86.1017456,126.84119 55.0938351,151.685043 C24.0859245,176.528896 15.9136633,220.24923 35.8610667,254.577379 C55.8084701,288.905528 97.8931629,303.546225 134.904052,289.033097 C138.100892,300.419322 148.601158,308.213865 160.448919,307.995527 C172.296679,307.777189 182.501376,299.601082 185.27473,288.104834 C188.048084,276.608586 182.690058,264.694029 172.239816,259.119303 L172.239816,259.119303 Z" id="Path" fill="#FF0200"></path>
                <rect id="Rectangle" fill="#FFFFFF" x="58" y="198" width="95" height="8"></rect>
                <rect id="Rectangle" fill="#FFFFFF" x="58" y="211" width="95" height="8"></rect>
                <rect id="Rectangle" fill="#FFFFFF" x="58" y="223" width="95" height="8"></rect>
                <path d="M506.467754,431 C506.313298,430.745612 502.671389,424.616446 501.408778,411.889076 C500.250677,400.212384 500.995356,380.530408 511.122516,353.075673 C530.308114,301.064508 506.701084,259.099032 506.459873,258.681015 L507.624543,258 C507.685668,258.105995 513.777217,268.805544 517.375749,285.842938 C522.130535,308.430938 520.399141,331.917002 512.38448,353.548673 C493.231767,405.47104 507.47076,430.050684 507.616662,430.293146 L506.467754,431 Z" id="Path" fill="#3F3D56"></path>
                <circle id="Oval" fill="#FF0200" cx="499" cy="247" r="9"></circle>
                <circle id="Oval" fill="#3F3D56" cx="527" cy="279" r="9"></circle>
                <circle id="Oval" fill="#FF0200" cx="508" cy="301" r="9"></circle>
                <circle id="Oval" fill="#FF0200" cx="531" cy="319" r="9"></circle>
                <circle id="Oval" fill="#3F3D56" cx="501" cy="348" r="9"></circle>
                <path d="M511.407407,431 C511.407407,431 502.611111,409.285714 529,393 L511.407407,431 Z" id="Path" fill="#3F3D56"></path>
                <path d="M501,431 C501,431 496.995345,407.802448 466,408.001271 L501,431 Z" id="Path" fill="#3F3D56"></path>
                <circle id="Oval" fill="#2F2E41" cx="446.5" cy="120.5" r="29.5"></circle>
                <path d="M404.844641,184.973704 L396.521588,203.821864 L387.643664,177.212678 C387.643664,177.212678 386.53393,153.92966 378.765741,155.038376 C370.997551,156.147092 377.656006,178.321394 377.656006,178.321394 C377.656006,178.321394 382.649835,227.659233 393.747242,224.887436 C404.844648,222.115639 412.05796,206.039276 412.05796,206.039276 L414,189.041884 L404.844641,184.973704 Z" id="Path" fill="#A0616A"></path>
                <path d="M435.817795,142.454397 C435.817795,142.454397 439.115364,160.828797 431.970623,164.7264 C424.825881,168.624003 459.450424,167.510395 460,161.385598 C460,161.385598 452.305683,142.454397 452.305683,138 L435.817795,142.454397 Z" id="Path" fill="#A0616A"></path>
                <path d="M383,292 C383,292 385.796613,323.543688 386.915251,330.184464 C388.033889,336.825239 388.033896,346.786406 388.033896,346.786406 C388.033896,346.786406 385.23729,368.368921 386.355935,388.844659 L388.033896,406 L400.898306,406 L401.389361,403.716454 L406.491524,379.990269 C406.491524,379.990269 412.084749,360.621342 409.847459,346.232987 L416,299.747552 L383,292 Z" id="Path" fill="#A0616A"></path>
                <path d="M422,303 C422,303 435.113412,344.335259 438.39176,348.744319 C441.670108,353.15338 446.041227,363.073862 446.041227,363.073862 C446.041227,363.073862 455.329885,386.221594 460.247417,390.079545 L465.711335,400 L475,397.244316 L472.268038,375.198865 C472.268038,375.198865 471.17526,357.011364 459.154633,341.028411 L453.144289,304.102274 L422,303 Z" id="Path" fill="#A0616A"></path>
                <path d="M455.502761,160.723586 C455.502761,160.723586 439.092113,165.003687 432.885971,163.140228 C432.885971,163.140228 426.679829,162.936368 424.462679,163.489538 C422.245528,164.042708 408.38835,169.021435 408.38835,170.127816 C408.38835,171.234197 411.159789,182.297998 411.159789,182.297998 C411.159789,182.297998 409.496926,188.936277 410.051213,193.361793 C410.605501,197.787309 400.074042,211.617063 405.616912,212.723444 C411.159782,213.829825 414.485508,211.617063 417.256946,213.829825 C420.028384,216.042586 453.285617,226 453.285617,226 L481,171.234197 C481,171.234197 476.565706,161.829967 472.685692,161.829967 C468.805678,161.829967 458.461603,159 458.461603,159 L455.502761,160.723586 Z" id="Path" fill="#3F3D56"></path>
                <path d="M411.840225,170.121952 L409.140497,169 C409.140497,169 399.421485,184.707317 402.661158,186.390246 C405.900831,188.073174 414,192 414,192 L411.840225,170.121952 Z" id="Path" fill="#3F3D56"></path>
                <path d="M410.054397,210 L401.21557,224.347901 C401.21557,224.347901 387.404892,226.555264 386.300044,245.317899 C386.300044,245.317899 376.908797,248.628955 374.699088,265.736062 C374.699088,265.736062 360.88841,274.565537 368.06997,284.498697 C375.251529,294.431857 413.92138,314.29817 454.800953,307.676066 C454.800953,307.676066 462.534906,292.224486 457.010662,281.739484 C457.010662,281.739484 462.936086,270.606908 452.791828,262.928987 C452.791828,262.928987 461.430079,251.940004 452.591252,239.79948 L453.143679,222.14053 L410.054397,210 Z" id="Path" fill="#2F2E41"></path>
                <path d="M402.13387,404 L386.669332,404 C386.669332,404 386.117033,417.630397 380.041676,420.901679 C373.966319,424.17296 362.367923,441.619862 371.2048,443.800725 C380.041676,445.981589 406,429.625126 406,425.808615 C406,421.992104 402.13387,404 402.13387,404 Z" id="Path" fill="#2F2E41"></path>
                <path d="M476.287199,395 L463,399.984023 C463,399.984023 472.965398,427.119277 472.965398,430.995738 C472.965398,434.872199 474.626299,439.302448 484.591697,437.641112 C494.557094,435.979775 492.896194,428.22684 492.896194,428.22684 L476.287199,395 Z" id="Path" fill="#2F2E41"></path>
                <circle id="Oval" fill="#A0616A" cx="441" cy="130" r="17"></circle>
                <path d="M479,190 C479,190 471.261306,217.592823 470.155754,219.800221 L451.914498,266.707986 C451.914498,266.707986 454.125561,290.437793 445.834081,286.574798 C437.542601,282.711803 445.281315,262.293134 445.281315,262.293134 L457.994914,212.074238 L465.180862,190 L479,190 Z" id="Path" fill="#A0616A"></path>
                <path d="M474.024737,167 L480.574251,171.371488 C480.574251,171.371488 486.032186,192.682464 480.574251,192.136034 C475.116317,191.589605 462.563089,194.868214 462.017295,193.775342 C461.471502,192.68247 474.024737,167 474.024737,167 Z" id="Path" fill="#3F3D56"></path>
                <circle id="Oval" fill="#2F2E41" cx="455.5" cy="89.5" r="12.5"></circle>
                <path d="M439.641511,83.5 C439.641897,77.1005936 444.544207,71.7347798 451,71.0675855 C450.561222,71.0226693 450.120384,71 449.679246,71 C442.676692,71 437,76.5964406 437,83.5 C437,90.4035594 442.676692,96 449.679246,96 C450.120384,96 450.561222,95.9773307 451,95.9324145 C444.544204,95.2652199 439.641893,89.8994021 439.641511,83.5 L439.641511,83.5 Z" id="Path" fill="#2F2E41"></path>
                <ellipse id="Oval" fill="#2F2E41" cx="441.5" cy="111.5" rx="20.5" ry="12.5"></ellipse>
                <ellipse id="Oval" fill="#A0616A" cx="459.5" cy="129.5" rx="1.5" ry="3.5"></ellipse>
                <rect id="Rectangle" fill="#3F3D56" x="195" y="59" width="186" height="104"></rect>
                <rect id="Rectangle" fill="#FFFFFF" x="229" y="99" width="117" height="3"></rect>
                <rect id="Rectangle" fill="#FFFFFF" x="229" y="113" width="117" height="3"></rect>
                <rect id="Rectangle" fill="#FFFFFF" x="229" y="127" width="117" height="3"></rect>
                <rect id="Rectangle" fill="#FF0200" x="195" y="59" width="186" height="12"></rect>
                <circle id="Oval" fill="#E6E6E6" cx="203" cy="66" r="4"></circle>
                <circle id="Oval" fill="#E6E6E6" cx="214" cy="66" r="4"></circle>
                <circle id="Oval" fill="#E6E6E6" cx="225" cy="66" r="4"></circle>
            </g>
        </g>
    </g>
</svg>