<?xml version="1.0" encoding="UTF-8"?>
<svg width="168px" height="173px" viewBox="0 0 168 173" version="1.1" xmlns="http://www.w3.org/2000/svg" xmlns:xlink="http://www.w3.org/1999/xlink">
    <!-- Generator: Sketch 57.1 (83088) - https://sketch.com -->
    <title>undraw_resume_folder_2_arse</title>
    <desc>Created with Sketch.</desc>
    <defs>
        <filter x="-7.4%" y="-7.3%" width="114.8%" height="114.5%" filterUnits="objectBoundingBox" id="filter-1">
            <feOffset dx="0" dy="2" in="SourceAlpha" result="shadowOffsetOuter1"></feOffset>
            <feGaussianBlur stdDeviation="2" in="shadowOffsetOuter1" result="shadowBlurOuter1"></feGaussianBlur>
            <feColorMatrix values="0 0 0 0 0   0 0 0 0 0   0 0 0 0 0  0 0 0 0.5 0" type="matrix" in="shadowBlurOuter1" result="shadowMatrixOuter1"></feColorMatrix>
            <feMerge>
                <feMergeNode in="shadowMatrixOuter1"></feMergeNode>
                <feMergeNode in="SourceGraphic"></feMergeNode>
            </feMerge>
        </filter>
        <linearGradient x1="49.9984627%" y1="100%" x2="49.9984627%" y2="0%" id="linearGradient-2">
            <stop stop-color="#808080" stop-opacity="0.25" offset="0%"></stop>
            <stop stop-color="#808080" stop-opacity="0.12" offset="54%"></stop>
            <stop stop-color="#808080" stop-opacity="0.1" offset="100%"></stop>
        </linearGradient>
        <linearGradient x1="50%" y1="99.9938647%" x2="50%" y2="-0.00613534573%" id="linearGradient-3">
            <stop stop-color="#B3B3B3" stop-opacity="0.25" offset="0%"></stop>
            <stop stop-color="#B3B3B3" stop-opacity="0.1" offset="54%"></stop>
            <stop stop-color="#B3B3B3" stop-opacity="0.05" offset="100%"></stop>
        </linearGradient>
        <linearGradient x1="65.3612298%" y1="101.275835%" x2="34.0921983%" y2="8.58719223%" id="linearGradient-4">
            <stop stop-color="#000000" stop-opacity="0.12" offset="0%"></stop>
            <stop stop-color="#000000" stop-opacity="0.09" offset="55%"></stop>
            <stop stop-color="#000000" stop-opacity="0.02" offset="100%"></stop>
        </linearGradient>
        <linearGradient x1="50%" y1="100%" x2="50%" y2="0%" id="linearGradient-5">
            <stop stop-color="#808080" stop-opacity="0.25" offset="0%"></stop>
            <stop stop-color="#808080" stop-opacity="0.12" offset="54%"></stop>
            <stop stop-color="#808080" stop-opacity="0.1" offset="100%"></stop>
        </linearGradient>
        <linearGradient x1="49.9984627%" y1="100%" x2="49.9984627%" y2="6.6464874e-15%" id="linearGradient-6">
            <stop stop-color="#808080" stop-opacity="0.25" offset="0%"></stop>
            <stop stop-color="#808080" stop-opacity="0.12" offset="54%"></stop>
            <stop stop-color="#808080" stop-opacity="0.1" offset="100%"></stop>
        </linearGradient>
        <linearGradient x1="50%" y1="99.9938647%" x2="50%" y2="0%" id="linearGradient-7">
            <stop stop-color="#B3B3B3" stop-opacity="0.25" offset="0%"></stop>
            <stop stop-color="#B3B3B3" stop-opacity="0.1" offset="54%"></stop>
            <stop stop-color="#B3B3B3" stop-opacity="0.05" offset="100%"></stop>
        </linearGradient>
        <linearGradient x1="57.9630704%" y1="99.2918958%" x2="42.4406186%" y2="1.53750486%" id="linearGradient-8">
            <stop stop-color="#000000" stop-opacity="0.12" offset="0%"></stop>
            <stop stop-color="#000000" stop-opacity="0.09" offset="55%"></stop>
            <stop stop-color="#000000" stop-opacity="0.02" offset="100%"></stop>
        </linearGradient>
        <linearGradient x1="49.9984627%" y1="100.002339%" x2="49.9984627%" y2="0%" id="linearGradient-9">
            <stop stop-color="#808080" stop-opacity="0.25" offset="0%"></stop>
            <stop stop-color="#808080" stop-opacity="0.12" offset="54%"></stop>
            <stop stop-color="#808080" stop-opacity="0.1" offset="100%"></stop>
        </linearGradient>
        <linearGradient x1="50%" y1="100%" x2="50%" y2="0%" id="linearGradient-10">
            <stop stop-color="#B3B3B3" stop-opacity="0.25" offset="0%"></stop>
            <stop stop-color="#B3B3B3" stop-opacity="0.1" offset="54%"></stop>
            <stop stop-color="#B3B3B3" stop-opacity="0.05" offset="100%"></stop>
        </linearGradient>
        <linearGradient x1="53.8170067%" y1="98.0574921%" x2="48.760812%" y2="-2.32391678%" id="linearGradient-11">
            <stop stop-color="#000000" stop-opacity="0.12" offset="0%"></stop>
            <stop stop-color="#000000" stop-opacity="0.09" offset="55%"></stop>
            <stop stop-color="#000000" stop-opacity="0.02" offset="100%"></stop>
        </linearGradient>
        <linearGradient x1="50%" y1="100%" x2="50%" y2="0%" id="linearGradient-12">
            <stop stop-color="#808080" stop-opacity="0.25" offset="0%"></stop>
            <stop stop-color="#808080" stop-opacity="0.12" offset="54%"></stop>
            <stop stop-color="#808080" stop-opacity="0.1" offset="100%"></stop>
        </linearGradient>
        <linearGradient x1="50%" y1="100%" x2="50%" y2="0%" id="linearGradient-13">
            <stop stop-color="#808080" stop-opacity="0.25" offset="0%"></stop>
            <stop stop-color="#808080" stop-opacity="0.12" offset="54%"></stop>
            <stop stop-color="#808080" stop-opacity="0.1" offset="100%"></stop>
        </linearGradient>
        <linearGradient x1="52.7242738%" y1="93.7262016%" x2="47.665126%" y2="4.20707017%" id="linearGradient-14">
            <stop stop-color="#000000" stop-opacity="0.12" offset="0%"></stop>
            <stop stop-color="#000000" stop-opacity="0.09" offset="55%"></stop>
            <stop stop-color="#000000" stop-opacity="0.02" offset="100%"></stop>
        </linearGradient>
    </defs>
    <g id="Page-1" stroke="none" stroke-width="1" fill="none" fill-rule="evenodd">
        <g id="Desktop-HD-Copy-7" transform="translate(-1213.000000, -1328.000000)" fill-rule="nonzero">
            <g id="undraw_resume_folder_2_arse" filter="url(#filter-1)" transform="translate(1216.000000, 1330.000000)">
                <polygon id="Rectangle" fill="url(#linearGradient-2)" transform="translate(47.628000, 65.701310) rotate(-15.708638) translate(-47.628000, -65.701310) " points="11.6553131 18.5619493 83.5194739 18.6237204 83.6006869 112.840671 11.7365261 112.7789"></polygon>
                <polygon id="Rectangle" fill="url(#linearGradient-3)" transform="translate(39.837770, 38.279772) rotate(-15.370000) translate(-39.837770, -38.279772) " points="3.70779969 20.2442453 75.9373032 20.305124 75.9677407 56.3152979 3.73823715 56.2544193"></polygon>
                <polygon id="Rectangle" fill="#EEEEEE" transform="translate(47.537500, 66.192557) rotate(-15.370000) translate(-47.537500, -66.192557) " points="12.3885375 20.0240314 82.6084655 20.0832163 82.6864631 112.361082 12.466535 112.301897"></polygon>
                <polygon id="Rectangle" fill="#02003C" transform="translate(39.921879, 38.582444) rotate(-15.370000) translate(-39.921879, -38.582444) " points="4.71618086 20.9674729 75.0978499 21.0267941 75.1275777 56.1974156 4.74590869 56.1380944"></polygon>
                <polygon id="Rectangle" fill="#BDBDBD" transform="translate(36.971715, 68.665220) rotate(-15.370000) translate(-36.971715, -68.665220) " points="27.4250642 67.9314027 46.5171388 67.9474944 46.5183657 69.3990365 27.4262911 69.3829447"></polygon>
                <polygon id="Rectangle" fill="#F5F5F5" transform="translate(38.516314, 74.265928) rotate(-15.370000) translate(-38.516314, -74.265928) " points="28.9696629 73.5321107 48.0617375 73.5482024 48.0629644 74.9997445 28.9708898 74.9836527"></polygon>
                <polygon id="Rectangle" fill="#69F0AE" transform="translate(52.569345, 67.404327) rotate(-15.370000) translate(-52.569345, -67.404327) " points="27.6517681 66.6575548 77.4856943 66.6995573 77.4869212 68.1510994 27.652995 68.1090968"></polygon>
                <polygon id="Rectangle" fill="#FFFFFF" transform="translate(40.806866, 34.492454) rotate(-15.370000) translate(-40.806866, -34.492454) " points="31.2602153 33.7586375 50.3522899 33.7747292 50.3535168 35.2262713 31.2614422 35.2101796"></polygon>
                <polygon id="Rectangle" fill="#FFFFFF" transform="translate(47.282310, 36.063137) rotate(-15.370000) translate(-47.282310, -36.063137) " points="31.9107707 35.3244104 62.6526223 35.3503211 62.6538492 36.8018632 31.9119977 36.7759524"></polygon>
                <path d="M39.6797052,39.3727504 L57.1589553,39.3874828 C57.6045445,39.3878584 57.9656726,39.7489855 57.9660492,40.1945747 C57.966425,40.6391927 57.6062955,40.9999315 57.1616775,41.0003073 C57.1612245,41.0003077 57.1607715,41.0003077 57.1603185,41.0003073 L39.6810685,40.9855749 C39.2354792,40.9851994 38.8743512,40.6240722 38.8739746,40.178483 C38.8735988,39.733865 39.2337282,39.3731262 39.6783462,39.3727504 C39.6787992,39.37275 39.6792522,39.37275 39.6797052,39.3727504 Z" id="Rectangle" fill="#000000" opacity="0.2" transform="translate(48.420012, 40.186529) rotate(-15.370000) translate(-48.420012, -40.186529) "></path>
                <ellipse id="Oval" fill="#69F0AE" transform="translate(20.144502, 74.280593) rotate(-15.370000) translate(-20.144502, -74.280593) " cx="20.1445015" cy="74.2805929" rx="3.39877603" ry="3.3891421"></ellipse>
                <polygon id="Rectangle" fill="#BDBDBD" transform="translate(40.706888, 82.197181) rotate(-15.370000) translate(-40.706888, -82.197181) " points="31.1602368 81.4633641 50.2523114 81.4794559 50.2535383 82.930998 31.1614637 82.9149062"></polygon>
                <polygon id="Rectangle" fill="#F5F5F5" transform="translate(42.249270, 87.797889) rotate(-15.370000) translate(-42.249270, -87.797889) " points="32.7026193 87.0640721 51.7946939 87.0801639 51.7959208 88.531706 32.7038462 88.5156142"></polygon>
                <polygon id="Rectangle" fill="#E0E0E0" transform="translate(56.302301, 80.936289) rotate(-15.370000) translate(-56.302301, -80.936289) " points="31.3847245 80.1895163 81.2186507 80.2315188 81.2198776 81.6830609 31.3859514 81.6410583"></polygon>
                <ellipse id="Oval" fill="#E0E0E0" transform="translate(23.875321, 87.813140) rotate(-15.370000) translate(-23.875321, -87.813140) " cx="23.875321" cy="87.8131399" rx="3.39877603" ry="3.3891421"></ellipse>
                <polygon id="Rectangle" fill="#BDBDBD" transform="translate(44.437120, 95.727598) rotate(-15.370000) translate(-44.437120, -95.727598) " points="34.8904689 94.9937812 53.9825435 95.009873 53.9837704 96.4614151 34.8916958 96.4453233"></polygon>
                <polygon id="Rectangle" fill="#F5F5F5" transform="translate(45.981718, 101.326097) rotate(-15.370000) translate(-45.981718, -101.326097) " points="36.4350676 100.59228 55.5271422 100.608372 55.5283691 102.059914 36.4362945 102.043822"></polygon>
                <polygon id="Rectangle" fill="#E0E0E0" transform="translate(60.033121, 94.466627) rotate(-15.370000) translate(-60.033121, -94.466627) " points="35.115544 93.7198544 84.9494702 93.7618569 84.9506971 95.213399 35.1167709 95.1713964"></polygon>
                <ellipse id="Oval" fill="#E0E0E0" transform="translate(27.608277, 101.345101) rotate(-15.370000) translate(-27.608277, -101.345101) " cx="27.6082775" cy="101.345101" rx="3.39877603" ry="3.3891421"></ellipse>
                <path d="M9.35260774,46.4872341 C10.6193262,50.8823204 14.9753363,53.6295238 19.4826025,52.8759144 C23.9898688,52.122305 27.2175072,48.1071249 26.9885449,43.538527 C26.7595827,38.9699291 23.1467063,35.2982678 18.5867237,35 L19.2253209,37.2309653 C19.6856477,38.8496723 18.7536188,40.5366424 17.1392366,41.0067729 L17.1392366,41.0067729 C15.5221701,41.4675667 13.8369097,40.5345923 13.3672556,38.9185723 L12.7286584,36.687607 C9.65170145,38.9148217 8.30120951,42.8348805 9.35260774,46.4872341 L9.35260774,46.4872341 Z" id="Path" fill="url(#linearGradient-4)"></path>
                <path d="M26.6771165,40.6210483 C25.4637486,36.2081504 21.1400894,33.4067786 16.6232597,34.1069845 C12.10643,34.8071904 8.83095281,38.7865922 9.00675312,43.3603354 C9.18255343,47.9340786 12.7537979,51.6495647 17.311011,52 L16.6958281,49.7617274 C16.2549106,48.1377861 17.2057306,46.4619625 18.8244885,46.0099561 L18.8244885,46.0099561 C20.446123,45.5684114 22.1195663,46.5205839 22.5709307,48.1416443 L23.1861135,50.379917 C26.2872612,48.1888287 27.6835139,44.2856962 26.6771165,40.6210483 Z" id="Path" fill="#38364D"></path>
                <ellipse id="Oval" stroke="#FFFFFF" fill="#FFFFFF" transform="translate(17.351876, 41.776524) rotate(-15.370000) translate(-17.351876, -41.776524) " cx="17.3518762" cy="41.7765244" rx="3.60039834" ry="3.5901929"></ellipse>
                <path d="M18.3719521,46.1238782 L18.3719521,46.1238782 C16.6551528,46.6405047 15.6467456,48.5559087 16.1143677,50.412013 L16.7668096,52.9702753 C18.9803038,53.1517621 21.1835095,52.4981168 23,51.1210171 L22.3475581,48.5627548 C21.8698708,46.7077416 20.0932092,45.6178301 18.3719521,46.1238782 Z" id="Path" stroke="#FFFFFF" fill="#FFFFFF"></path>
                <path d="M13.8889602,43 C13.4681668,42.5272346 13.1780099,41.9454942 13.0490393,41.3160284 C12.9232006,40.6812953 13.0417471,40.0206684 13.3793207,39.475461 C13.7620972,38.8921986 14.3964124,38.542695 15.0372896,38.3021277 C15.6781668,38.0615603 16.3496661,37.9049645 16.9577338,37.5895035 C17.9731899,37.0568615 18.7405387,36.1241588 19.0881583,35 C19.290357,35.5019782 19.4250444,36.0304302 19.4884331,36.5704965 C19.5497627,37.1167577 19.391532,37.6651115 19.0509743,38.0865248 C19.5059315,37.6870922 19.6043597,38.2907801 19.5846741,38.6743262 C19.9280792,38.9239716 20.5689564,38.7991489 20.7133178,39.2076596 C20.8762186,39.6095869 20.9437296,40.0462222 20.9101743,40.4808511 C20.855492,40.9120567 21.2032717,41.5429787 20.8095588,41.688227" id="Path" stroke="#FFFFFF" fill="#FFFFFF"></path>
                <path d="M19,37.0166588 C19,37.0166588 21.6388429,36.5163003 20.8542583,41" id="Path" fill="#FFFFFF"></path>
                <polygon id="Path" fill="url(#linearGradient-5)" points="142.026666 158 119 158 119 63 162 63"></polygon>
                <polygon id="Path" fill="#BDBDBD" points="140.027359 158 117 158 117 63 160 63"></polygon>
                <polygon id="Rectangle" fill="url(#linearGradient-6)" transform="translate(115.013847, 84.448243) rotate(-6.050000) translate(-115.013847, -84.448243) " points="78.9587791 37.2069443 151.036166 37.231853 151.068915 131.689541 78.9915277 131.664632"></polygon>
                <polygon id="Rectangle" fill="url(#linearGradient-7)" transform="translate(111.914176, 55.296924) rotate(-6.050000) translate(-111.914176, -55.296924) " points="75.7861393 37.2828754 148.029731 37.3078416 148.042214 73.3109718 75.7986216 73.2860056"></polygon>
                <polygon id="Rectangle" fill="#F5F5F5" transform="translate(114.975401, 84.082048) rotate(-6.050000) translate(-114.975401, -84.082048) " points="79.842595 37.9400038 150.07622 37.9642754 150.108206 130.224091 79.8745816 130.19982"></polygon>
                <polygon id="Rectangle" fill="#6C63FF" transform="translate(111.946925, 55.607560) rotate(-6.050000) translate(-111.946925, -55.607560) " points="76.743131 38.0135256 147.138528 38.0378531 147.150719 73.201595 76.7553223 73.1772676"></polygon>
                <polygon id="Rectangle" fill="#BDBDBD" transform="translate(104.150221, 84.817604) rotate(-6.050000) translate(-104.150221, -84.817604) " points="94.6020706 84.0886748 113.697869 84.095274 113.698372 85.5465322 94.6025737 85.539933"></polygon>
                <polygon id="Rectangle" fill="#F5F5F5" transform="translate(104.764011, 90.592043) rotate(-6.050000) translate(-104.764011, -90.592043) " points="95.2158603 89.8631138 114.311659 89.869713 114.312162 91.3209712 95.2163634 91.314372"></polygon>
                <polygon id="Rectangle" fill="#69F0AE" transform="translate(119.745240, 86.090037) rotate(-6.050000) translate(-119.745240, -86.090037) " points="94.8231653 85.3557953 144.666812 85.3730205 144.667315 86.8242786 94.8236685 86.8070535"></polygon>
                <polygon id="Rectangle" fill="#FFFFFF" transform="translate(113.486741, 51.714757) rotate(-6.050000) translate(-113.486741, -51.714757) " points="103.93859 50.9858281 123.034389 50.9924273 123.034892 52.4436854 103.939093 52.4370862"></polygon>
                <polygon id="Rectangle" fill="#FFFFFF" transform="translate(119.619979, 54.311713) rotate(-6.050000) translate(-119.619979, -54.311713) " points="104.245804 53.5807713 134.993652 53.5913972 134.994155 55.0426553 104.246307 55.0320294"></polygon>
                <path d="M111.329247,57.7506595 L128.812537,57.7567015 C129.257909,57.7568554 129.618916,58.1178623 129.619071,58.5632346 C129.619225,59.0082085 129.258628,59.3690562 128.813654,59.3692105 C128.813468,59.3692106 128.813282,59.3692106 128.813096,59.3692105 L111.329806,59.3631686 C110.884434,59.3630147 110.523427,59.0020078 110.523272,58.5566354 C110.523118,58.1116615 110.883716,57.7508138 111.32869,57.7506595 C111.328876,57.7506595 111.329061,57.7506595 111.329247,57.7506595 Z" id="Rectangle" fill="#000000" opacity="0.2" transform="translate(120.071172, 58.559935) rotate(-6.050000) translate(-120.071172, -58.559935) "></path>
                <ellipse id="Oval" fill="#69F0AE" transform="translate(86.630022, 87.641797) rotate(-6.050000) translate(-86.630022, -87.641797) " cx="86.6300221" cy="87.6417975" rx="3.39943794" ry="3.38847813"></ellipse>
                <polygon id="Rectangle" fill="#BDBDBD" transform="translate(105.635163, 98.771260) rotate(-6.050000) translate(-105.635163, -98.771260) " points="96.0870117 98.0423309 115.18281 98.0489301 115.183313 99.5001883 96.0875149 99.4935891"></polygon>
                <polygon id="Rectangle" fill="#F5F5F5" transform="translate(106.249186, 104.545686) rotate(-6.050000) translate(-106.249186, -104.545686) " points="96.701035 103.816758 115.796834 103.823357 115.797337 105.274615 96.7015382 105.268016"></polygon>
                <polygon id="Rectangle" fill="#E0E0E0" transform="translate(121.230181, 100.043693) rotate(-6.050000) translate(-121.230181, -100.043693) " points="96.3081065 99.3094514 146.151753 99.3266766 146.152256 100.777935 96.3086096 100.76071"></polygon>
                <ellipse id="Oval" fill="#E0E0E0" transform="translate(88.114963, 101.595454) rotate(-6.050000) translate(-88.114963, -101.595454) " cx="88.1149633" cy="101.595454" rx="3.39943794" ry="3.38847813"></ellipse>
                <polygon id="Rectangle" fill="#BDBDBD" transform="translate(107.118133, 112.725136) rotate(-6.050000) translate(-107.118133, -112.725136) " points="97.5699826 111.996208 116.665781 112.002807 116.666284 113.454065 97.5704858 113.447466"></polygon>
                <polygon id="Rectangle" fill="#F5F5F5" transform="translate(107.731923, 118.499575) rotate(-6.050000) translate(-107.731923, -118.499575) " points="98.1837723 117.770647 117.279571 117.777246 117.280074 119.228504 98.1842755 119.221905"></polygon>
                <polygon id="Rectangle" fill="#E0E0E0" transform="translate(122.713152, 113.997570) rotate(-6.050000) translate(-122.713152, -113.997570) " points="97.7910774 113.263328 147.634724 113.280553 147.635227 114.731811 97.7915805 114.714586"></polygon>
                <ellipse id="Oval" fill="#E0E0E0" transform="translate(89.597934, 115.549330) rotate(-6.050000) translate(-89.597934, -115.549330) " cx="89.5979342" cy="115.54933" rx="3.39943794" ry="3.38847813"></ellipse>
                <path d="M81.0623071,57.9458913 C81.5955529,62.5454171 85.4473176,66.0093088 90.0182624,66 C94.5892071,65.9906536 98.4271687,62.5110701 98.9421233,57.9094054 C99.4570779,53.3077406 96.4854273,49.0459175 92.0325709,48 L92.3050183,50.3333596 C92.4913997,52.0193597 91.3041268,53.5434274 89.6422709,53.751451 L89.6422709,53.751451 C87.9720765,53.9464695 86.4599919,52.7382154 86.2579637,51.0471692 L85.9855163,48.7138096 C82.5868617,50.4311351 80.6172915,54.1245051 81.0623071,57.9458913 L81.0623071,57.9458913 Z" id="Path" fill="url(#linearGradient-8)"></path>
                <path d="M98.9496138,56.1652008 C98.466352,51.5547792 94.6541317,48.0437261 90.084467,48.0004049 C85.5148024,47.9570836 81.63858,51.3952488 81.0704864,55.9957034 C80.5023927,60.596158 83.4227997,64.8982393 87.8617614,66 L87.616973,63.6611578 C87.4443346,61.9642002 88.6550671,60.4444237 90.3266747,60.2597944 L90.3266747,60.2597944 C91.9992727,60.0846417 93.4972332,61.3130072 93.6792121,63.0089598 L93.9240005,65.3478021 C97.3395057,63.6676738 99.3496435,59.9948296 98.9496138,56.1652008 L98.9496138,56.1652008 Z" id="Path" fill="#6C63FF"></path>
                <ellipse id="Oval" stroke="#FFFFFF" fill="#FFFFFF" transform="translate(89.157941, 55.116160) rotate(-6.050000) translate(-89.157941, -55.116160) " cx="89.1579409" cy="55.1161596" rx="3.60109951" ry="3.58948955"></ellipse>
                <path d="M90.0177733,60.0165322 L90.0177733,60.0165322 C88.1673098,60.2006174 86.8270334,61.7159151 87.0181434,63.4078716 L87.2891233,65.7398211 C89.5404215,66.2414995 91.9125052,66.0131696 94,65.0938517 L93.7290201,62.7619022 C93.5299597,61.0692122 91.8709844,59.8419963 90.0177733,60.0165322 Z" id="Path" stroke="#FFFFFF" fill="#FFFFFF"></path>
                <path d="M85.5705158,55 C85.2273902,54.4646163 85.0309477,53.8438287 85.0019033,53.2030998 C84.9769826,52.5589959 85.1975826,51.9303739 85.6166195,51.4514046 C86.0864384,50.9405877 86.7714079,50.7032612 87.4432049,50.5744269 C88.1150019,50.4455925 88.797776,50.413949 89.4564005,50.1879238 C90.5455988,49.8345386 91.4517999,49.0464854 91.9723462,48 C92.0942324,48.5267519 92.1452041,49.068254 92.1238298,49.6092993 C92.0988639,50.1567413 91.855849,50.6693892 91.4520328,51.0264772 C91.9635645,50.710042 91.9679553,51.3180497 91.8911158,51.6932515 C92.1918877,51.9961253 92.8461214,51.9803035 92.9251563,52.4074911 C93.0249479,52.8292658 93.0249479,53.2695395 92.9251563,53.6913142 C92.8022131,54.1049403 93.050295,54.7852761 92.6353615,54.8598644" id="Path" stroke="#FFFFFF" fill="#FFFFFF"></path>
                <path d="M92,51 C92,51 93.6246168,50.9516952 92.7323624,55" id="Path" fill="#FFFFFF"></path>
                <rect id="Rectangle" fill="url(#linearGradient-9)" x="49" y="0" width="72" height="95"></rect>
                <rect id="Rectangle" fill="url(#linearGradient-10)" x="49" y="0" width="72" height="36"></rect>
                <rect id="Rectangle" fill="#F5F5F5" x="50" y="1" width="70" height="92"></rect>
                <rect id="Rectangle" fill="#FF0200" x="50" y="1" width="70" height="35"></rect>
                <rect id="Rectangle" fill="#BDBDBD" x="65" y="46" width="19" height="1"></rect>
                <rect id="Rectangle" fill="#F5F5F5" x="65" y="52" width="19" height="1"></rect>
                <rect id="Rectangle" fill="#69F0AE" x="65" y="49" width="50" height="1"></rect>
                <rect id="Rectangle" fill="#FFFFFF" x="78" y="14" width="19" height="1"></rect>
                <rect id="Rectangle" fill="#FFFFFF" x="77" y="17" width="31" height="1"></rect>
                <rect id="Rectangle" fill="#000000" opacity="0.2" x="83" y="22" width="19" height="1" rx="0.5"></rect>
                <circle id="Oval" fill="#69F0AE" cx="56.5" cy="47.5" r="3.5"></circle>
                <rect id="Rectangle" fill="#BDBDBD" x="65" y="60" width="19" height="1"></rect>
                <rect id="Rectangle" fill="#F5F5F5" x="65" y="66" width="19" height="1"></rect>
                <rect id="Rectangle" fill="#E0E0E0" x="65" y="63" width="50" height="1"></rect>
                <circle id="Oval" fill="#E0E0E0" cx="56.5" cy="61.5" r="3.5"></circle>
                <rect id="Rectangle" fill="#BDBDBD" x="65" y="74" width="19" height="1"></rect>
                <rect id="Rectangle" fill="#F5F5F5" x="65" y="80" width="19" height="1"></rect>
                <rect id="Rectangle" fill="#E0E0E0" x="65" y="77" width="50" height="1"></rect>
                <circle id="Oval" fill="#E0E0E0" cx="56.5" cy="75.5" r="3.5"></circle>
                <path d="M54.0005874,17.8607992 C54.0579241,22.5595424 57.5302506,26.4682592 62.0755497,26.9505956 C66.6208488,27.4329319 70.7961562,24.3357638 71.7853077,19.7480714 C72.7744591,15.160379 70.2634356,10.5385849 65.945874,9 L65.9735449,11.3837476 C65.9936526,13.1189527 64.6426036,14.5426379 62.9552953,14.5642667 L62.9552953,14.5642667 C61.2745605,14.5801165 59.8967413,13.1974204 59.8710615,11.469116 L59.8433907,9.08536837 C56.293508,10.4538006 53.9574512,13.9623742 54.0005874,17.8607992 Z" id="Path" fill="url(#linearGradient-11)"></path>
                <path d="M64.0322369,7.06174432 C59.4928018,6.5219828 55.2814289,9.57364149 54.238767,14.1583202 C53.196105,18.7429989 55.6531858,23.4051215 59.9526629,25 L59.9526629,22.6091807 C59.95734,20.8764734 61.3192486,19.4730343 63.0006817,19.4682145 C64.6821149,19.4730343 66.0440234,20.8764734 66.0487006,22.6091807 L66.0487006,24.9978066 C69.6192221,23.6719511 71.9995374,20.1812161 72,16.2702196 C71.9979573,11.5613203 68.571672,7.60150584 64.0322369,7.06174432 Z" id="Path" fill="#AB240C"></path>
                <circle id="Oval" stroke="#FFFFFF" fill="#FFFFFF" cx="62.5" cy="15.5" r="3.5"></circle>
                <path d="M62.5,20 L62.5,20 C60.5692324,20.0047599 59.0053707,21.3907566 59,23.1019294 L59,25.4608687 C61.2628475,26.1797104 63.7371525,26.1797104 66,25.4608687 L66,23.1019294 C65.9946293,21.3907566 64.4307676,20.0047599 62.5,20 Z" id="Path" stroke="#FFFFFF" fill="#FFFFFF"></path>
                <path d="M59.3867591,15.3640538 C59.1003321,14.7851934 58.9688641,14.136392 59.0062175,13.486061 C59.046919,12.8320838 59.331133,12.2206753 59.7980959,11.7825517 C60.3194158,11.3233847 61.0255074,11.1557888 61.7074026,11.0938012 C62.3892979,11.0318137 63.0799918,11.0708429 63.7530885,10.9330928 C64.874109,10.695731 65.8572842,9.99949604 66.4828692,9 C66.5498015,9.54532698 66.5446205,10.0976671 66.4674716,10.6415218 C66.3865016,11.1913744 66.0921218,11.6821447 65.6535966,11.9983601 C66.1969131,11.736635 66.1375223,12.3496228 66.0209402,12.7192522 C66.289299,13.0590357 66.9447983,13.1141358 66.9777932,13.554936 C67.0325166,13.9924782 66.985745,14.4373387 66.8414142,14.8520827 C66.6764395,15.2561496 66.8524125,15.9701541 66.432277,16" id="Path" stroke="#FFFFFF" fill="#FFFFFF"></path>
                <path d="M65,12 C65,12 66.8382482,12.2244669 65.5300769,16" id="Path" fill="#FFFFFF"></path>
                <polygon id="Path" fill="url(#linearGradient-12)" points="42.476959 67.9554384 26.76053 57 5 57 5 67.9554384 5 73.3221302 5 165 141 165 141 67.9554384"></polygon>
                <polyline id="Path" fill="#FFFFFF" points="6 68 6 73.2547436 6 163 140 163 140 68 42.9269588 68"></polyline>
                <polyline id="Path" fill="#BDBDBD" points="43 69 27.4825853 58 6 58 6 69"></polyline>
                <rect id="Rectangle" fill="url(#linearGradient-13)" x="36" y="83" width="74" height="66"></rect>
                <rect id="Rectangle" fill="#FFFFFF" x="37" y="83" width="72" height="65"></rect>
                <rect id="Rectangle" fill="#BDBDBD" x="60" y="131" width="28" height="3"></rect>
                <rect id="Rectangle" fill="#E0E0E0" x="42" y="136" width="62" height="3"></rect>
                <rect id="Rectangle" fill="#E0E0E0" x="42" y="140" width="62" height="3"></rect>
                <path d="M55.0012584,107.735603 C55.1156629,116.610831 62.0590665,123.994236 71.1488292,124.906441 C80.2385919,125.818646 88.5895109,119.970106 90.569716,111.305083 C92.549921,102.640059 87.5308706,93.9089391 78.8974186,91 L78.9537775,95.504139 C78.9851595,98.7691477 76.2958835,101.445822 72.9346503,101.49506 L72.9346503,101.49506 C69.5731814,101.525541 66.8174289,98.9134366 66.7667358,95.6486569 L66.7103769,91.1445178 C59.5958777,93.7232844 54.9118312,100.360284 55.0012584,107.735603 Z" id="Path" fill="url(#linearGradient-14)"></path>
                <path d="M91,105.51455 C90.9983125,96.6192752 84.1463796,89.1376059 75.0666994,88.1168775 C65.9870193,87.0961492 57.5629004,92.8605004 55.47748,101.521145 C53.3920596,110.181789 58.3075757,118.988486 66.907889,122 L66.907889,117.487015 C66.9214786,114.220937 69.6386483,111.576536 72.9946018,111.56331 L72.9946018,111.56331 C76.3505554,111.576536 79.0677251,114.220937 79.0813146,117.487015 L79.0813146,122 C86.2291876,119.501275 90.9973444,112.906151 91,105.51455 Z" id="Path" fill="#BDBDBD"></path>
                <rect id="Rectangle" stroke="#FFFFFF" fill="#FFFFFF" x="72" y="108" width="2" height="7" rx="1"></rect>
                <circle id="Oval" stroke="#FFFFFF" fill="#FFFFFF" cx="73" cy="102" r="7"></circle>
                <path d="M72.9922323,110 L72.9922323,110 C69.6883712,110.01384 67.0133786,112.781034 67,116.198774 L67,120.921321 C70.8791886,122.35956 75.1208114,122.35956 79,120.921321 L79,116.207957 C78.9914482,112.78038 76.3056106,110.005046 72.9922323,110 L72.9922323,110 Z" id="Path" stroke="#FFFFFF" fill="#FFFFFF"></path>
                <path d="M65.7267291,100.89545 C65.1888732,99.9037001 64.9417983,98.7920381 65.0115532,97.6776659 C65.0887359,96.5574383 65.6224626,95.5103519 66.4987692,94.7599861 C67.476395,93.9659604 68.8017669,93.6846127 70.0833971,93.586662 C71.3650274,93.4887114 72.6619672,93.547065 73.9217266,93.3115665 C76.0259733,92.9053935 77.8716474,91.7126389 79.0460605,90 C79.1269825,90.9378256 79.2079046,91.8902397 79.0176284,92.815561 C78.8273523,93.7408823 78.3286975,94.647447 77.4866708,95.1413685 C78.5058512,94.6912122 78.39431,95.7457451 78.1734146,96.3772143 C78.6786307,96.9586662 79.9055838,97.0545328 79.9690092,97.8068774 C80.0324346,98.559222 80.0214992,99.3365752 79.7131206,100.030566 C79.404742,100.724557 79.7349914,101.945815 78.9476418,102" id="Path" stroke="#FFFFFF" fill="#FFFFFF"></path>
                <path d="M78,95 C78,95 83.5154632,95.3890045 79.5894632,102" id="Path" fill="#FFFFFF"></path>
            </g>
        </g>
    </g>
</svg>