<?xml version="1.0" encoding="UTF-8"?>
<svg width="273px" height="55px" viewBox="0 0 273 55" version="1.1" xmlns="http://www.w3.org/2000/svg" xmlns:xlink="http://www.w3.org/1999/xlink">
    <!-- Generator: Sketch 57.1 (83088) - https://sketch.com -->
    <title>Group 4</title>
    <desc>Created with Sketch.</desc>
    <g id="Page-1" stroke="none" stroke-width="1" fill="none" fill-rule="evenodd">
        <g id="Desktop-HD-Copy-7" transform="translate(-1096.000000, -71.000000)" fill-rule="nonzero">
            <g id="Group-4" transform="translate(1096.000000, 71.000000)">
                <g id="Group-3" fill="#FF0200">
                    <path d="M0,55 L0,26.3643068 C0,8.35545723 1.61723742,0 19.0025397,0 C36.1452564,0 37.8433557,8.35545723 37.8433557,26.3643068 L37.8433557,55 L26.7652794,55 L26.7652794,33.7463127 L10.9972145,43.7241888 L10.9972145,55 L0,55 Z M10.9972145,32.8539823 L26.7652794,22.8761062 C26.7652794,11.4380531 25.1480419,8.59882006 19.0025397,8.59882006 C12.3718663,8.59882006 10.9972145,11.8436578 10.9972145,25.9587021 L10.9972145,32.8539823 Z M43.2495494,55 L43.2495494,13.7905605 C43.2495494,4.86725664 47.3735048,0.081120944 56.0257251,0.081120944 C59.9879567,0.081120944 63.2224316,1.13569322 66.2143208,3.08259587 L72.5215468,7.30088496 L78.9904965,3.24483776 C82.2249713,1.13569322 84.8934131,0.081120944 89.0982304,0.081120944 C97.6695887,0.081120944 101.874406,4.46165192 101.874406,13.7905605 L101.874406,55 L90.8771915,55 L90.8771915,14.0339233 C90.8771915,11.519174 89.8259872,9.81563422 87.6427167,9.81563422 C86.187203,9.81563422 84.8125512,10.5457227 83.1144519,11.600295 L78.020154,14.8451327 L78.020154,55 L67.0229395,55 L67.0229395,14.8451327 L62.0095035,11.519174 C60.3922661,10.3834808 59.0176143,9.81563422 57.6429625,9.81563422 C55.2171063,9.81563422 54.2467639,11.519174 54.2467639,14.0339233 L54.2467639,55 L43.2495494,55 Z M107.361462,55 L107.361462,22.7138643 C107.361462,4.78613569 110.919384,0 127.17262,0 C132.509504,0 138.41242,0.486725664 141,0.892330383 L140.757414,9.49115044 C138.169835,9.24778761 132.913813,8.92330383 129.275029,8.92330383 C119.81419,8.92330383 118.358676,11.3569322 118.358676,20.9292035 L118.358676,27.8244838 L134.692774,18.0088496 L135.501393,18.0088496 L135.501393,28.2300885 L118.358676,38.6946903 L118.358676,55 L107.361462,55 Z" id="AMF"></path>
                </g>
                <g id="ARTWORKMANAGEMENTFRAMEWORK-2" transform="translate(150.000000, 0.000000)" fill="#FFFFFF">
                    <path d="M4.35057067,0.251155124 L6.86423372,0.251155124 L11.2534761,13.137345 L8.68180547,13.137345 L7.88903481,10.4519171 L3.34510545,10.4519171 L2.53299892,13.137345 L0,13.137345 L4.35057067,0.251155124 Z M7.27028698,8.34607798 L5.60740219,3.09113999 L3.96385327,8.34607798 L7.27028698,8.34607798 Z M13.0070987,0.251155124 L16.216853,0.251155124 C18.4984856,0.251155124 19.3685998,0.386392499 20.2580498,0.869383123 C21.418202,1.48761112 22.0949574,2.72406712 22.0949574,4.21167824 C22.0949574,5.87316599 21.3021867,7.10962198 19.8133248,7.78580886 L22.7717128,13.137345 L19.8906683,13.137345 L17.26099,8.21084061 L15.48209,8.21084061 L15.48209,13.137345 L13.0070987,13.137345 L13.0070987,0.251155124 Z M15.48209,6.10500149 L16.37154,6.10500149 C17.5896998,6.10500149 18.0150889,6.06636224 18.4791498,5.89248561 C19.1559052,5.62201086 19.5619585,5.00378286 19.5619585,4.19235862 C19.5619585,3.51617174 19.2719204,2.99454187 18.749852,2.68542787 C18.2471193,2.39563349 17.8797378,2.35699424 16.1975172,2.35699424 L15.48209,2.35699424 L15.48209,6.10500149 Z M23.1718245,0.251155124 L32.4530419,0.251155124 L32.4530419,2.35699424 L29.0499289,2.35699424 L29.0499289,13.137345 L26.5749376,13.137345 L26.5749376,2.35699424 L23.1718245,2.35699424 L23.1718245,0.251155124 Z M33.3365503,0.251155124 L35.6568547,0.251155124 L38.1125101,10.3166797 L40.510158,0.251155124 L42.6371036,0.251155124 L45.0347515,10.3166797 L47.5290786,0.251155124 L49.7913754,0.251155124 L46.4656058,13.137345 L43.6619047,13.137345 L41.5349591,4.75262774 L39.4466851,13.137345 L36.642984,13.137345 L33.3365503,0.251155124 Z M56.1856066,0 C57.7131403,0 59.105323,0.540949499 60.1301241,1.54557 C61.3482838,2.72406712 62.0057034,4.50147261 62.0057034,6.68459023 C62.0057034,8.88702748 61.3676197,10.664433 60.1301241,11.8429301 C59.1246588,12.828231 57.6938045,13.3885001 56.2049425,13.3885001 C54.6774088,13.3885001 53.2465545,12.828231 52.2217534,11.8429301 C50.9842577,10.6451134 50.3655099,8.88702748 50.3655099,6.58799211 C50.3655099,4.52079224 51.0422653,2.68542787 52.2217534,1.54557 C53.2658903,0.540949499 54.6774088,0 56.1856066,0 Z M56.1856066,2.12515875 C55.2188132,2.12515875 54.4067066,2.51155124 53.903974,3.20705774 C53.3045621,4.03780162 52.9371805,5.31289686 52.9371805,6.62663136 C52.9371805,9.54389473 54.1553403,11.2633413 56.1856066,11.2633413 C57.1524001,11.2633413 57.9645067,10.8769489 58.4672393,10.1814424 C59.0859871,9.33137885 59.4340327,8.09492286 59.4340327,6.68459023 C59.4340327,5.29357724 59.0859871,4.03780162 58.4672393,3.20705774 C57.9645067,2.51155124 57.1524001,2.12515875 56.1856066,2.12515875 Z M64.2427227,0.251155124 L67.4524771,0.251155124 C69.7341097,0.251155124 70.6042238,0.386392499 71.4936738,0.869383123 C72.653826,1.48761112 73.3305814,2.72406712 73.3305814,4.21167824 C73.3305814,5.87316599 72.5378108,7.10962198 71.0489488,7.78580886 L74.0073369,13.137345 L71.1262923,13.137345 L68.496614,8.21084061 L66.717714,8.21084061 L66.717714,13.137345 L64.2427227,13.137345 L64.2427227,0.251155124 Z M66.717714,6.10500149 L67.607164,6.10500149 C68.8253238,6.10500149 69.2507129,6.06636224 69.7147738,5.89248561 C70.3915292,5.62201086 70.7975825,5.00378286 70.7975825,4.19235862 C70.7975825,3.51617174 70.5075445,2.99454187 69.985476,2.68542787 C69.4827434,2.39563349 69.1153618,2.35699424 67.4331412,2.35699424 L66.717714,2.35699424 L66.717714,6.10500149 Z M82.8958953,0.251155124 L85.757604,0.251155124 L80.9429725,6.22091924 L86.0669779,13.137345 L82.9152312,13.137345 L78.1779431,6.29819774 L82.8958953,0.251155124 Z M75.6642801,0.251155124 L78.1392714,0.251155124 L78.1392714,13.137345 L75.6642801,13.137345 L75.6642801,0.251155124 Z M1.35351087,21.0569051 L4.81463154,21.0569051 L7.59899677,31.2963063 L10.4220337,21.0569051 L13.8444827,21.0569051 L13.8444827,33.9430949 L11.6015218,33.9430949 L11.6015218,23.8968899 L8.85582829,33.9430949 L6.3034935,33.9430949 L3.59647175,23.8968899 L3.59647175,33.9430949 L1.35351087,33.9430949 L1.35351087,21.0569051 Z M19.9486759,21.0569051 L22.4623389,21.0569051 L26.8515813,33.9430949 L24.2799107,33.9430949 L23.48714,31.2576671 L18.9432106,31.2576671 L18.1311041,33.9430949 L15.5981052,33.9430949 L19.9486759,21.0569051 Z M22.8683922,29.1518279 L21.2055074,23.8968899 L19.5619585,29.1518279 L22.8683922,29.1518279 Z M28.6052039,21.0569051 L31.254218,21.0569051 L36.4749028,30.1371288 L36.4749028,21.0569051 L38.8338789,21.0569051 L38.8338789,33.9430949 L36.3395517,33.9430949 L30.96418,24.8628712 L30.96418,33.9430949 L28.6052039,33.9430949 L28.6052039,21.0569051 Z M44.7640493,21.0569051 L47.2777123,21.0569051 L51.6669547,33.9430949 L49.0952841,33.9430949 L48.3025134,31.2576671 L43.7585841,31.2576671 L42.9464775,33.9430949 L40.4134786,33.9430949 L44.7640493,21.0569051 Z M47.6837656,29.1518279 L46.0208808,23.8968899 L44.3773319,29.1518279 L47.6837656,29.1518279 Z M58.0998577,27.2971439 L62.7211306,27.2971439 L62.7211306,32.6486801 C61.2322686,33.6919398 59.7047349,34.19425 58.0031784,34.19425 C54.3293632,34.19425 52.0477305,31.6247399 52.0477305,27.5096598 C52.0477305,23.4718582 54.348699,20.80575 57.8098197,20.80575 C59.4340327,20.80575 60.8648871,21.4432976 61.6963295,22.5445162 C62.2377338,23.2786619 62.4697643,24.0128077 62.5277719,25.2106244 L60.4008262,25.2106244 C60.1687958,23.6843741 59.3566893,22.9502283 57.8678273,22.9502283 C55.837561,22.9502283 54.6194012,24.6503553 54.6194012,27.5289794 C54.6194012,30.3882839 55.8568969,32.0497717 57.9838425,32.0497717 C58.8926284,32.0497717 59.9367654,31.7213381 60.6715284,31.1997082 L60.6715284,29.1325083 L58.0998577,29.1325083 L58.0998577,27.2971439 Z M67.7811868,26.2152449 L72.9051923,26.2152449 L72.9051923,28.3210841 L67.7811868,28.3210841 L67.7811868,31.8372558 L73.6206195,31.8372558 L73.6206195,33.9430949 L65.3061955,33.9430949 L65.3061955,21.0569051 L73.4079249,21.0569051 L73.4079249,23.1627442 L67.7811868,23.1627442 L67.7811868,26.2152449 Z M75.7029518,21.0569051 L79.1640725,21.0569051 L81.9484377,31.2963063 L84.7714746,21.0569051 L88.1939236,21.0569051 L88.1939236,33.9430949 L85.9509627,33.9430949 L85.9509627,23.8968899 L83.2052692,33.9430949 L80.6529344,33.9430949 L77.9459127,23.8968899 L77.9459127,33.9430949 L75.7029518,33.9430949 L75.7029518,21.0569051 Z M93.7760483,26.2152449 L98.9000538,26.2152449 L98.9000538,28.3210841 L93.7760483,28.3210841 L93.7760483,31.8372558 L99.6154809,31.8372558 L99.6154809,33.9430949 L91.301057,33.9430949 L91.301057,21.0569051 L99.4027864,21.0569051 L99.4027864,23.1627442 L93.7760483,23.1627442 L93.7760483,26.2152449 Z M101.697813,21.0569051 L104.346827,21.0569051 L109.567512,30.1371288 L109.567512,21.0569051 L111.926488,21.0569051 L111.926488,33.9430949 L109.432161,33.9430949 L104.056789,24.8628712 L104.056789,33.9430949 L101.697813,33.9430949 L101.697813,21.0569051 Z M113.718783,21.0569051 L123,21.0569051 L123,23.1627442 L119.596887,23.1627442 L119.596887,33.9430949 L117.121896,33.9430949 L117.121896,23.1627442 L113.718783,23.1627442 L113.718783,21.0569051 Z M3.82850219,47.0209949 L8.95250764,47.0209949 L8.95250764,49.126834 L3.82850219,49.126834 L3.82850219,54.7488449 L1.35351087,54.7488449 L1.35351087,41.862655 L9.45524025,41.862655 L9.45524025,43.9684942 L3.82850219,43.9684942 L3.82850219,47.0209949 Z M11.3828856,41.862655 L14.59264,41.862655 C16.8742726,41.862655 17.7443867,41.9978924 18.6338367,42.480883 C19.7939889,43.099111 20.4707443,44.335567 20.4707443,45.8231781 C20.4707443,47.4846659 19.6779737,48.7211219 18.1891117,49.3973088 L21.1474998,54.7488449 L18.2664552,54.7488449 L15.6367769,49.8223405 L13.8578769,49.8223405 L13.8578769,54.7488449 L11.3828856,54.7488449 L11.3828856,41.862655 Z M13.8578769,47.7165014 L14.7473269,47.7165014 C15.9654867,47.7165014 16.3908759,47.6778621 16.8549367,47.5039855 C17.5316922,47.2335108 17.9377454,46.6152828 17.9377454,45.8038585 C17.9377454,45.1276716 17.6477074,44.6060418 17.1256389,44.2969278 C16.6229063,44.0071334 16.2555248,43.9684942 14.5733041,43.9684942 L13.8578769,43.9684942 L13.8578769,47.7165014 Z M25.8015028,41.862655 L28.3151658,41.862655 L32.7044082,54.7488449 L30.1327376,54.7488449 L29.3399669,52.063417 L24.7960376,52.063417 L23.983931,54.7488449 L21.4509321,54.7488449 L25.8015028,41.862655 Z M28.7212191,49.9575779 L27.0583343,44.7026399 L25.4147854,49.9575779 L28.7212191,49.9575779 Z M34.4580308,41.862655 L37.9191514,41.862655 L40.7035167,52.1020563 L43.5265536,41.862655 L46.9490026,41.862655 L46.9490026,54.7488449 L44.7060417,54.7488449 L44.7060417,44.7026399 L41.9603482,54.7488449 L39.4080134,54.7488449 L36.7009917,44.7026399 L36.7009917,54.7488449 L34.4580308,54.7488449 L34.4580308,41.862655 Z M52.5311273,47.0209949 L57.6551327,47.0209949 L57.6551327,49.126834 L52.5311273,49.126834 L52.5311273,52.6430058 L58.3705599,52.6430058 L58.3705599,54.7488449 L50.056136,54.7488449 L50.056136,41.862655 L58.1578654,41.862655 L58.1578654,43.9684942 L52.5311273,43.9684942 L52.5311273,47.0209949 Z M59.0800455,41.862655 L61.4003499,41.862655 L63.8560053,51.9281796 L66.2536531,41.862655 L68.3805988,41.862655 L70.7782466,51.9281796 L73.2725738,41.862655 L75.5348706,41.862655 L72.209101,54.7488449 L69.4053999,54.7488449 L67.2784542,46.3641276 L65.1901803,54.7488449 L62.3864792,54.7488449 L59.0800455,41.862655 Z M81.9291018,41.6114999 C83.4566355,41.6114999 84.8488181,42.1524494 85.8736192,43.1570699 C87.091779,44.335567 87.7491986,46.1129725 87.7491986,48.2960901 C87.7491986,50.4985274 87.1111149,52.2759329 85.8736192,53.45443 C84.868154,54.4397309 83.4372996,55 81.9484377,55 C80.420904,55 78.9900496,54.4397309 77.9652485,53.45443 C76.7277529,52.2566133 76.1090051,50.4985274 76.1090051,48.199492 C76.1090051,46.1322921 76.7857605,44.2969278 77.9652485,43.1570699 C79.0093855,42.1524494 80.420904,41.6114999 81.9291018,41.6114999 Z M81.9291018,43.7366587 C80.9623083,43.7366587 80.1502018,44.1230511 79.6474692,44.8185576 C79.0480572,45.6493015 78.6806757,46.9243968 78.6806757,48.2381313 C78.6806757,51.1553946 79.8988355,52.8748413 81.9291018,52.8748413 C82.8958953,52.8748413 83.7080018,52.4884488 84.2107344,51.7929423 C84.8294823,50.9428788 85.1775279,49.7064228 85.1775279,48.2960901 C85.1775279,46.9050771 84.8294823,45.6493015 84.2107344,44.8185576 C83.7080018,44.1230511 82.8958953,43.7366587 81.9291018,43.7366587 Z M89.9862179,41.862655 L93.1959722,41.862655 C95.4776048,41.862655 96.347719,41.9978924 97.237169,42.480883 C98.3973211,43.099111 99.0740766,44.335567 99.0740766,45.8231781 C99.0740766,47.4846659 98.2813059,48.7211219 96.792444,49.3973088 L99.750832,54.7488449 L96.8697874,54.7488449 L94.2401092,49.8223405 L92.4612092,49.8223405 L92.4612092,54.7488449 L89.9862179,54.7488449 L89.9862179,41.862655 Z M92.4612092,47.7165014 L93.3506592,47.7165014 C94.568819,47.7165014 94.9942081,47.6778621 95.458269,47.5039855 C96.1350244,47.2335108 96.5410777,46.6152828 96.5410777,45.8038585 C96.5410777,45.1276716 96.2510396,44.6060418 95.7289711,44.2969278 C95.2262385,44.0071334 94.858857,43.9684942 93.1766363,43.9684942 L92.4612092,43.9684942 L92.4612092,47.7165014 Z M108.63939,41.862655 L111.501099,41.862655 L106.686468,47.8324191 L111.810473,54.7488449 L108.658726,54.7488449 L103.921438,47.9096976 L108.63939,41.862655 Z M101.407775,41.862655 L103.882767,41.862655 L103.882767,54.7488449 L101.407775,54.7488449 L101.407775,41.862655 Z" id="ARTWORKMANAGEMENTFRAMEWORK"></path>
                </g>
            </g>
        </g>
    </g>
</svg>