<?xml version="1.0" encoding="UTF-8"?>
<svg width="476px" height="548px" viewBox="0 0 476 548" version="1.1" xmlns="http://www.w3.org/2000/svg" xmlns:xlink="http://www.w3.org/1999/xlink">
    <!-- Generator: Sketch 58 (84663) - https://sketch.com -->
    <title>Group 2</title>
    <desc>Created with Sketch.</desc>
    <defs>
        <linearGradient x1="50.004199%" y1="100.008187%" x2="50.004199%" y2="0.00765306884%" id="linearGradient-1">
            <stop stop-color="#808080" stop-opacity="0.25" offset="0%"></stop>
            <stop stop-color="#808080" stop-opacity="0.12" offset="54%"></stop>
            <stop stop-color="#808080" stop-opacity="0.1" offset="100%"></stop>
        </linearGradient>
    </defs>
    <g id="Page-1" stroke="none" stroke-width="1" fill="none" fill-rule="evenodd">
        <g id="Group-2" transform="translate(0.230000, 0.458456)">
            <g id="Group">
                <ellipse id="Oval-2" fill="#FFFFFF" fill-rule="nonzero" opacity="0.1" cx="237.5" cy="511.221544" rx="237.5" ry="36"></ellipse>
                <rect id="Rectangle" fill="#FFFFFF" fill-rule="nonzero" x="155.23" y="85.7715445" width="285" height="205.11" rx="4.13"></rect>
                <polygon id="Path" fill="#504F60" fill-rule="nonzero" points="314.96 296.191544 314.88 299.121544 309.78 479.191544 301.2 479.191544 305.41 299.121544 305.49 295.741544"></polygon>
                <polygon id="Path" fill="#000000" fill-rule="nonzero" opacity="0.1" points="314.96 296.191544 314.88 299.121544 309.78 479.191544 301.2 479.191544 305.41 299.121544 305.49 295.741544"></polygon>
                <polygon id="Path" fill="#504F60" fill-rule="nonzero" points="364.61 448.731544 358.19 448.711544 262.74 448.511544 257.66 448.501544 260.36 440.151544 363.93 440.151544"></polygon>
                <polygon id="Path" fill="#000000" fill-rule="nonzero" opacity="0.1" points="314.96 296.191544 314.88 299.121544 305.41 299.121544 305.49 295.741544"></polygon>
                <rect id="Rectangle" fill="#504F60" fill-rule="nonzero" x="302.67" y="291.791544" width="15.91" height="5.98"></rect>
                <polygon id="Path" fill="#000000" fill-rule="nonzero" opacity="0.1" points="263.59 440.151544 262.74 448.511544 257.66 448.501544 260.36 440.151544"></polygon>
                <polygon id="Path" fill="#504F60" fill-rule="nonzero" points="277.29 291.681544 277.02 294.271544 255.85 503.101544 246.15 502.651544 268.46 294.271544 268.71 291.901544"></polygon>
                <polygon id="Path" fill="#000000" fill-rule="nonzero" opacity="0.1" points="364.61 448.731544 358.19 448.711544 357.32 440.151544 363.93 440.151544"></polygon>
                <polygon id="Path" fill="#504F60" fill-rule="nonzero" points="374.77 502.651544 365.06 503.101544 343.89 294.271544 343.63 291.681544 352.2 291.901544 352.45 294.271544"></polygon>
                <rect id="Rectangle" fill="#FFFFFF" fill-rule="nonzero" x="202.15" y="85.7715445" width="213.91" height="205.11"></rect>
                <path d="M313.27,17.1815445 L313.27,66.7115445 L304.93,66.7115445 L304.93,17.1815445 C304.93,14.8785171 306.796973,13.0115445 309.1,13.0115445 C311.403027,13.0115445 313.27,14.8785171 313.27,17.1815445 Z" id="Path" fill="#504F60" fill-rule="nonzero"></path>
                <rect id="Rectangle" fill="#000000" fill-rule="nonzero" opacity="0.1" x="304.93" y="62.2015445" width="8.35" height="4.51"></rect>
                <path d="M316.55,65.5815445 L316.55,81.9415445 L301.66,81.9415445 L301.66,65.5815445 C301.66,64.476975 302.555431,63.5815445 303.66,63.5815445 L314.49,63.5815445 C315.030751,63.5653146 315.55501,63.7688414 315.943162,64.1456877 C316.331314,64.5225339 316.550244,65.0405503 316.55,65.5815445 L316.55,65.5815445 Z" id="Path" fill="#504F60" fill-rule="nonzero"></path>
                <circle id="Oval" fill="#000000" fill-rule="nonzero" opacity="0.1" cx="309.1" cy="73.9315445" r="3.16"></circle>
                <circle id="Oval" fill="#3F3D56" fill-rule="nonzero" cx="309.1" cy="73.2515445" r="3.16"></circle>
                <rect id="Rectangle" fill="#000000" fill-rule="nonzero" opacity="0.1" x="301.66" y="79.9115445" width="14.89" height="2.03"></rect>
                <rect id="Rectangle" fill="#000000" fill-rule="nonzero" opacity="0.1" x="295.56" y="82.6215445" width="27.08" height="4.51"></rect>
                <rect id="Rectangle" fill="#504F60" fill-rule="nonzero" x="295.56" y="81.2615445" width="27.08" height="4.51"></rect>
                <path d="M255.4,285.541544 L366.98,285.541544 C370.293708,285.541544 372.98,288.227836 372.98,291.541544 L372.98,291.541544 L249.42,291.541544 L249.42,291.541544 C249.42,288.235631 252.094105,285.552564 255.4,285.541544 Z" id="Path" fill="#000000" fill-rule="nonzero" opacity="0.1"></path>
                <polygon id="Path" fill="#000000" fill-rule="nonzero" opacity="0.1" points="268.71 291.901544 277.29 291.681544 277.02 294.271544 268.46 294.271544"></polygon>
                <rect id="Rectangle" fill="#000000" fill-rule="nonzero" opacity="0.1" x="302.67" y="291.791544" width="15.91" height="2.48"></rect>
                <polygon id="Path" fill="#000000" fill-rule="nonzero" opacity="0.1" points="352.45 294.271544 343.89 294.271544 343.63 291.681544 352.2 291.901544"></polygon>
                <path d="M255.4,286.941544 L366.98,286.941544 C370.293708,286.941544 372.98,289.627836 372.98,292.941544 L372.98,292.941544 L249.42,292.941544 L249.42,292.941544 C249.42,289.627836 252.106292,286.941544 255.42,286.941544 L255.4,286.941544 Z" id="Path" fill="#504F60" fill-rule="nonzero"></path>
                <path d="M408.59,109.861544 C409.049166,109.789974 409.515432,109.936735 409.850825,110.258398 C410.186218,110.580061 410.352327,111.03979 410.3,111.501544 C408.85,125.501544 409.78,139.841544 411.35,153.811544 C412.08,160.201544 413.07,166.961544 415.9,171.701544 C416.271666,172.293152 416.188943,173.062476 415.7,173.561544 C414.909858,174.176367 413.917883,174.472532 412.92,174.391544 L368.29,174.641591 C367.831185,174.645148 367.396297,174.437163 367.1111,174.077737 C366.825903,173.718311 366.722207,173.247532 366.83,172.801544 C370.42,157.501544 369.65,140.801544 368.21,124.931544 C367.5,117.121544 367.09,112.931544 372.92,112.381544 C378.92,111.841544 384.92,111.591544 390.92,111.091544 C392.36,110.971544 403.9,110.631544 408.59,109.861544 Z" id="Path" stroke="#33313F" stroke-width="3" fill="#FFFFFF" fill-rule="nonzero"></path>
                <path d="M374.44,201.551544 C373.980834,201.479974 373.514568,201.626735 373.179175,201.948398 C372.843782,202.270061 372.677673,202.72979 372.73,203.191544 C374.18,217.191544 373.25,231.531544 371.67,245.501544 C370.95,251.891544 369.96,258.651544 367.13,263.401544 C366.756084,263.989161 366.839139,264.757417 367.33,265.251544 C368.120142,265.866367 369.112117,266.162532 370.11,266.081544 L414.74,266.341544 C415.198277,266.338141 415.630209,266.126795 415.914123,265.767041 C416.198036,265.407288 416.303204,264.938063 416.2,264.491544 C412.61,249.191544 413.38,232.491544 414.82,216.621544 C415.53,208.811544 415.94,204.621544 410.11,204.071544 C404.28,203.521544 398.11,203.281544 392.11,202.781544 C390.67,202.661544 379.13,202.321544 374.44,201.551544 Z" id="Path" stroke="#33313F" stroke-width="3" fill="#FFFFFF" fill-rule="nonzero"></path>
                <path d="M387.55,227.311544 C392.735905,227.069692 397.931547,227.133135 403.11,227.501544 C403.802065,227.56819 404.352797,228.110578 404.43,228.801544 L404.92,232.891544 C404.970356,233.07718 404.925407,233.275704 404.8,233.421544 C404.689968,233.500532 404.554659,233.536139 404.42,233.521544 C402.24,233.581544 400.06,233.331544 397.89,233.521544 C396.54,233.631544 395.2,233.891544 393.89,234.041544 C391.6755,234.236528 389.450087,234.276626 387.23,234.161544 C384.101969,234.215481 380.981759,233.831766 377.96,233.021544 C377.96,233.021544 378.14,229.631544 378.14,229.311544 C378.14,227.731544 378.09,227.591544 379.72,227.551544 L387.55,227.311544 Z" id="Path" stroke="#33313F" stroke-width="2" stroke-linecap="round"></path>
                <path d="M387.55,245.751544 C392.736017,245.99507 397.931956,245.928284 403.11,245.551544 C403.802065,245.484899 404.352797,244.942511 404.43,244.251544 L404.92,240.171544 C404.970312,239.982743 404.92554,239.781268 404.8,239.631544 C404.689968,239.552557 404.554659,239.51695 404.42,239.531544 C402.24,239.471544 400.06,239.731544 397.89,239.531544 C396.54,239.431544 395.2,239.171544 393.89,239.021544 C391.675768,238.821557 389.449999,238.781453 387.23,238.901544 C384.101969,238.847608 380.981759,239.231323 377.96,240.041544 C377.96,240.041544 378.14,243.421544 378.14,243.751544 C378.14,245.331544 378.09,245.461544 379.72,245.511544 L387.55,245.751544 Z" id="Path" stroke="#33313F" stroke-width="2" stroke-linecap="round"></path>
                <path d="M387.55,252.971544 C392.736017,252.728019 397.931956,252.794805 403.11,253.171544 C403.802065,253.23819 404.352797,253.780578 404.43,254.471544 L404.92,258.551544 C404.970312,258.740346 404.92554,258.941821 404.8,259.091544 C404.689968,259.170532 404.554659,259.206139 404.42,259.191544 C402.24,259.251544 400.06,258.991544 397.89,259.191544 C396.54,259.291544 395.2,259.561544 393.89,259.711544 C391.675267,259.903195 389.449854,259.939951 387.23,259.821544 C384.102431,259.878872 380.982212,259.498522 377.96,258.691544 C377.96,258.691544 378.14,255.301544 378.14,254.971544 C378.14,253.391544 378.09,253.261544 379.72,253.221544 L387.55,252.971544 Z" id="Path" stroke="#33313F" stroke-width="2" stroke-linecap="round"></path>
                <path d="M394.12,167.381544 C394.577393,168.48075 394.729413,169.683087 394.56,170.861544 C394.56169,170.95624 394.537486,171.049599 394.49,171.131544 C394.378151,171.239722 394.225073,171.294392 394.07,171.281544 L384.57,171.651544 C384.57,171.651544 385.1,168.851544 385.17,168.651544 C385.5,167.511544 386.33,167.811544 387.4,167.751544 L394.12,167.381544 Z" id="Path" stroke="#33313F" stroke-width="2" fill="#FFFFFF" fill-rule="nonzero" stroke-linecap="round"></path>
                <path d="M408.47,167.381544 C408.924008,168.481681 409.072569,169.683986 408.9,170.861544 C408.905252,170.955353 408.884489,171.048789 408.84,171.131544 C408.726807,171.23754 408.57473,171.291854 408.42,171.281544 L398.91,171.651544 C398.91,171.651544 399.45,168.851544 399.52,168.651544 C399.84,167.511544 400.67,167.811544 401.75,167.751544 L408.47,167.381544 Z" id="Path" stroke="#33313F" stroke-width="2" fill="#FFFFFF" fill-rule="nonzero" stroke-linecap="round"></path>
                <path d="M402.74,119.641544 L404.02,130.641544 C404.106311,131.444386 403.86534,132.248124 403.351565,132.871053 C402.83779,133.493981 402.094596,133.883498 401.29,133.951544 C393.17363,134.593269 385.017248,134.539741 376.91,133.791544 C375.419503,133.648123 374.262993,132.4276 374.2,130.931544 C374.047968,128.970721 373.760617,127.022748 373.34,125.101544 C373.01,123.101544 372.65,121.171544 375.01,120.581544 C377.37,119.991544 380.6,120.411544 383.18,120.361544 C386.273333,120.301544 389.356667,120.214878 392.43,120.101544 C393.29,120.101544 402.74,119.591544 402.74,119.641544 Z" id="Path" stroke="#33313F" stroke-width="3"></path>
                <path d="M402.74,159.381544 L404,148.381544 C404.086311,147.578703 403.84534,146.774965 403.331565,146.152036 C402.81779,145.529108 402.074596,145.13959 401.27,145.071544 C393.153733,144.43149 384.997777,144.48167 376.89,145.221544 C375.395875,145.36552 374.238125,146.591624 374.18,148.091544 C374.027968,150.052368 373.740617,152.000341 373.32,153.921544 C372.99,155.921544 372.63,157.851544 374.99,158.441544 C377.35,159.031544 380.58,158.611544 383.16,158.661544 C386.25,158.721544 389.33,158.801544 392.41,158.921544 C393.29,158.951544 402.74,159.461544 402.74,159.381544 Z" id="Path" stroke="#33313F" stroke-width="3"></path>
                <path d="M389.89,208.951544 C389.556667,212.611544 389.346667,216.278211 389.26,219.951544 C385.58944,219.920594 381.932441,219.501598 378.35,218.701544 C377.778749,218.674581 377.248873,218.395663 376.903275,217.940014 C376.557676,217.484365 376.431949,216.898911 376.56,216.341544 C376.49,214.061544 375.29,208.971544 378.5,208.651544 C379.46,208.551544 389.88,209.131544 389.89,208.951544 Z" id="Path" stroke="#33313F" stroke-width="2" stroke-linecap="round"></path>
                <path d="M213.32,158.991544 C214.27257,158.888218 215.221136,159.218538 215.903485,159.891194 C216.585834,160.563851 216.929689,161.507593 216.84,162.461544 C215.69,175.771544 216.6,189.401544 218.1,202.671544 C218.77,208.571544 219.66,214.781544 222.02,219.431544 C222.437751,220.242329 222.403787,221.21202 221.930331,221.991589 C221.456876,222.771157 220.612073,223.248402 219.7,223.251544 L219.7,223.251544 L175.42,223.511582 C174.884465,223.51505 174.376469,223.274528 174.039784,222.858051 C173.703099,222.441573 173.574359,221.894457 173.69,221.371544 C177.2,206.151544 176.43,189.531544 175,173.791544 C174.28,165.981544 173.88,161.791544 179.7,161.241544 C185.7,160.711544 191.7,160.461544 197.65,159.951544 C198.92,159.851544 208,159.571544 213.32,158.991544 Z" id="Path" stroke="#33313F" stroke-width="3" fill="#FFFFFF" fill-rule="nonzero" stroke-linecap="round"></path>
                <path d="M274.92,158.741544 C274.428849,158.666165 273.930698,158.824735 273.573497,159.170161 C273.216296,159.515586 273.041121,160.008143 273.1,160.501544 C274.53,174.431544 273.6,188.751544 272.03,202.671544 C271.31,209.061544 270.32,215.791544 267.5,220.541544 C267.090464,221.237492 267.271603,222.13025 267.92,222.611544 C268.676513,223.090844 269.566694,223.315142 270.46,223.251544 L314.97,223.511545 C315.465002,223.511545 315.932247,223.282916 316.235471,222.891659 C316.538695,222.500402 316.643751,221.990828 316.52,221.511544 C312.97,206.241544 313.73,189.561544 315.17,173.761544 C315.88,165.951544 316.29,161.761544 310.47,161.211544 C304.47,160.681544 298.47,160.431544 292.47,159.921544 C291,159.831544 279.7,159.501544 274.92,158.741544 Z" id="Path" stroke="#33313F" stroke-width="3" fill="#FFFFFF" fill-rule="nonzero"></path>
                <path d="M186.81,167.831544 L209.45,198.031544" id="Path" stroke="#33313F" stroke-width="2" fill="#FFFFFF" fill-rule="nonzero" stroke-linecap="round"></path>
                <path d="M209.45,165.571544 L187.56,199.541544" id="Path" stroke="#33313F" stroke-width="2" fill="#FFFFFF" fill-rule="nonzero" stroke-linecap="round"></path>
                <path d="M287.84,169.251544 L300.17,185.701544" id="Path" stroke="#33313F" stroke-width="2" fill="#FFFFFF" fill-rule="nonzero" stroke-linecap="round"></path>
                <path d="M300.17,168.011544 L288.25,186.521544" id="Path" stroke="#33313F" stroke-width="2" fill="#FFFFFF" fill-rule="nonzero" stroke-linecap="round"></path>
                <path d="M194.29,207.681544 C199.479239,207.439738 204.678206,207.503181 209.86,207.871544 C210.548669,207.94541 211.095629,208.484083 211.18,209.171544 L211.66,213.261544 C211.70818,213.448886 211.667624,213.647977 211.55,213.801544 C211.435479,213.870475 211.303616,213.905175 211.17,213.901544 C208.99,213.961544 206.8,213.701544 204.63,213.901544 C203.28,214.001544 201.95,214.261544 200.63,214.411544 C198.415505,214.606626 196.190085,214.646724 193.97,214.531544 C190.845227,214.586124 187.72823,214.20239 184.71,213.391544 C184.65,213.391544 184.89,210.011544 184.89,209.681544 C184.89,208.101544 184.83,207.971544 186.46,207.921544 L194.29,207.681544 Z" id="Path" stroke="#33313F" stroke-width="2" stroke-linecap="round"></path>
                <path d="M289.41,192.581544 C294.599352,192.338073 299.798614,192.404859 304.98,192.781544 C305.672065,192.84819 306.222797,193.390578 306.3,194.081544 L306.78,198.161544 C306.82818,198.348886 306.787624,198.547977 306.67,198.701544 C306.55957,198.779682 306.424587,198.815203 306.29,198.801544 C304.11,198.861544 301.92,198.601544 299.75,198.801544 C298.4,198.901544 297.07,199.171544 295.75,199.311544 C293.535768,199.511532 291.309999,199.551635 289.09,199.431544 C285.961969,199.485481 282.841759,199.101766 279.82,198.291544 C279.77,198.291544 280,194.911544 280,194.581544 C280,193.001544 279.95,192.871544 281.58,192.821544 L289.41,192.581544 Z" id="Path" stroke="#33313F" stroke-width="2" stroke-linecap="round"></path>
                <path d="M297.34,203.911544 C292.154094,203.669738 286.958455,203.733181 281.78,204.101544 C281.087935,204.16819 280.537203,204.710578 280.46,205.401544 L280,209.481544 C279.941435,209.668488 279.982974,209.872407 280.11,210.021544 C280.220032,210.100532 280.355341,210.136139 280.49,210.121544 C282.67,210.181544 284.85,209.931544 287.03,210.121544 C288.38,210.221544 289.71,210.491544 291.03,210.641544 C293.244761,210.831554 295.469832,210.871646 297.69,210.761544 C300.818094,210.816665 303.938467,210.432929 306.96,209.621544 C307.01,209.621544 306.78,206.231544 306.78,205.911544 C306.78,204.321544 306.84,204.191544 305.21,204.151544 L297.34,203.911544 Z" id="Path" stroke="#33313F" stroke-width="2" stroke-linecap="round"></path>
                <path d="M232.63,196.511544 C232.63,196.511544 247.34,195.761544 249.98,196.511544" id="Path" stroke="#33313F" stroke-width="3"></path>
                <path d="M250,188.591544 C250,188.591544 256.41,195.001544 256.41,196.511544 C256.41,198.021544 248.11,203.301544 248.11,203.301544" id="Path" stroke="#33313F" stroke-width="3"></path>
                <path d="M328.84,182.831544 C328.84,182.831544 342.17,176.591544 344.9,176.291544" id="Path" stroke="#33313F" stroke-width="3"></path>
                <path d="M341.92,168.961544 C341.92,168.961544 350.27,172.481544 350.84,173.871544 C351.41,175.261544 345.72,183.291544 345.72,183.291544" id="Path" stroke="#33313F" stroke-width="3"></path>
                <path d="M328.7,198.811544 C328.7,198.811544 342.25,204.561544 344.3,206.401544" id="Path" stroke="#33313F" stroke-width="3"></path>
                <path d="M347.76,199.271544 C347.76,199.271544 350.76,207.841544 350.06,209.201544 C349.36,210.561544 339.63,211.681544 339.63,211.681544" id="Path" stroke="#33313F" stroke-width="3"></path>
                <path d="M381.29,167.381544 C381.744008,168.481681 381.892569,169.683986 381.72,170.861544 C381.725252,170.955353 381.704489,171.048789 381.66,171.131544 C381.546807,171.23754 381.39473,171.291854 381.24,171.281544 L371.73,171.651544 C371.73,171.651544 372.27,168.851544 372.34,168.651544 C372.66,167.511544 373.5,167.811544 374.57,167.751544 L381.29,167.381544 Z" id="Path" stroke="#33313F" stroke-width="2" fill="#FFFFFF" fill-rule="nonzero" stroke-linecap="round"></path>
                <polygon id="Path" fill="#33313F" fill-rule="nonzero" points="201.64 253.561544 205 250.431544 202 250.311544 200.43 252.721544"></polygon>
                <polygon id="Path" fill="#65617D" fill-rule="nonzero" points="177.47 275.481544 181.03 270.911544 181.82 270.091544 192.72 258.671544 196.43 254.791544 198.17 254.581544 200.67 252.101544 202.14 253.391544 199.71 256.231544 199.75 257.721544 195.96 261.831544 185.26 273.451544 184.57 274.191544 180.27 278.171544"></polygon>
                <polygon id="Path" fill="#33313F" fill-rule="nonzero" points="181.82 270.091544 192.72 258.671544 195.96 261.831544 185.26 273.451544"></polygon>
                <path d="M198.27,274.491544 C195.101621,271.542716 192.346649,268.17889 190.08,264.491544 C185.28,257.011544 177.26,252.971544 171.76,250.961544 L171.76,248.531544 L172.1,248.461544 L171.95,246.201544 L172.1,246.201544 L171.71,240.201544 L171.71,240.151544 L171.71,240.151544 L169.73,210.381544 C169.73,210.381544 162.68,190.531544 175.21,172.221544 C187.74,153.911544 175.99,136.351544 164.21,129.481544 C164.21,129.481544 158.73,100.481544 163.43,93.6115445 C157.054492,89.9419269 150.484865,86.6203933 143.75,83.6615445 C143.64,83.3015445 143.55,82.9415445 143.46,82.5615445 C143.33,79.8615445 143.16,77.1615445 143.01,74.4615445 C143.166673,73.0582214 143.424003,71.6679733 143.78,70.3015445 C143.93,69.7315445 144.1,69.1615445 144.28,68.5715445 C155.741697,64.1920981 163.344109,53.2311277 163.43,40.9615445 C163.432575,37.4639756 162.802429,33.9947865 161.57,30.7215445 C162.202208,29.6814334 162.683671,28.5568973 163,27.3815445 C163.75,24.2915445 162.9,20.9915445 161.14,17.8615445 C158,11.0815445 150.17,4.73154446 144.49,2.38154446 C136.35,-0.918455538 124.1,-0.138455538 115.62,0.881544462 C110.86,1.45154446 105.43,3.04154446 103.71,7.40154446 C103.08,9.00154446 103.07,10.7715445 102.63,12.4015445 C100.85,19.0615445 93.16,22.1615445 88.41,27.2615445 C84.21,31.7615445 82.41,37.8515445 81.01,43.7815445 C77.110596,60.7770352 76.1802158,78.3189319 78.26,95.6315445 C78.74,99.6315445 79.38,103.581544 80.06,107.541544 C77.2,111.541544 74.62,118.611544 75.8,130.891544 L66.4,175.151544 L62.49,201.101544 C62.49,201.101544 60.14,211.781544 69.49,220.941544 C75.49,226.781544 82.74,236.651544 87.21,243.041544 C85.2636574,248.6994 84.2997494,254.648573 84.36,260.631544 C84.46,263.351544 84.61,265.981544 84.8,268.481544 C85.1959406,273.792803 86.2025797,279.040749 87.8,284.121544 C88.9,294.781544 91.07,308.411544 95.32,317.121544 L96.88,363.671544 C96.88,363.671544 94.53,406.411544 89.88,414.801544 C85.23,423.191544 100.05,494.171544 100.05,494.171544 L100.05,504.091544 L97.55,511.431544 L96.92,510.961544 C85.18,525.461544 96.92,530.801544 96.92,530.801544 C96.92,530.801544 100.12,530.951544 105.23,531.151544 C104.33759,535.335877 106.396016,539.592703 110.23,541.491544 C110.23,541.491544 176.76,544.541544 188.51,541.491544 C200.26,538.441544 197.12,527.751544 190.85,528.491544 C188.46,528.791544 184.93,528.161544 181.48,527.271544 C185.13,523.021544 182.21,517.271544 177.55,517.811544 C171.29,518.571544 157.2,513.031544 157.2,513.031544 L157.13,513.121544 C156.680172,512.950075 156.219084,512.809744 155.75,512.701544 C150.515937,511.524373 145.345792,510.079136 140.26,508.371544 C137.26,501.941544 130.26,484.661544 135.26,471.261544 C137.52,465.201544 138.26,457.141544 138.26,449.321544 C138.379351,425.73038 141.850723,402.275889 148.57,379.661544 L157.96,347.661544 C157.96,347.661544 171.27,308.731544 172.05,298.051544 L172,282.511544 C183,289.511544 191.75,287.411544 197.33,284.141544 C198.980991,283.167559 200.067229,281.463344 200.253071,279.555496 C200.438913,277.647649 199.701987,275.765841 198.27,274.491544 Z M93.8,193.491544 C94.07,192.371544 94.29,191.151544 94.48,189.861544 C96.32,189.861544 98.17,189.861544 100.01,189.801544 C102.298671,194.45068 103.260614,199.641021 102.79,204.801544 C98.55,203.491544 92.21,200.281544 93.8,193.541544 L93.8,193.491544 Z" id="Shape" fill="url(#linearGradient-1)" fill-rule="nonzero"></path>
                <path d="M101.24,500.381544 L98.24,509.381544 L108.03,519.171544 L140.42,526.701544 L163.77,524.441544 L162.26,516.151544 L162.26,516.151544 C161.344568,512.525158 158.481999,509.712742 154.84,508.861544 C145.24,506.601544 126.94,501.461544 123.09,494.311544 L101.24,500.381544 Z" id="Path" fill="#DB8B8B" fill-rule="nonzero"></path>
                <path d="M101.24,500.381544 L98.24,509.381544 L108.03,519.171544 L140.42,526.701544 L163.77,524.441544 L162.26,516.151544 L162.26,516.151544 C161.344568,512.525158 158.481999,509.712742 154.84,508.861544 C145.24,506.601544 126.94,501.461544 123.09,494.311544 L101.24,500.381544 Z" id="Path" fill="#000000" fill-rule="nonzero" opacity="0.1"></path>
                <path d="M156.23,522.181544 L151.71,516.181544 L156.23,509.181544 C156.23,509.181544 169.78,514.651544 175.81,513.901544 C181.84,513.151544 184.81,523.691544 173.55,526.701544 C162.29,529.711544 98.23,526.701544 98.23,526.701544 C98.23,526.701544 86.93,521.431544 98.23,507.121544 L108.02,514.651544 C108.02,514.651544 124.59,523.651544 132.88,522.181544 L156.23,522.181544 Z" id="Path" fill="#2E3037" fill-rule="nonzero"></path>
                <path d="M176.56,534.991544 L153.21,537.251544 L120.82,529.711544 L111,519.921544 L111.8,517.531544 L112.92,514.171544 L114.02,510.881544 L135.86,504.881544 C136.968857,506.685161 138.486383,508.202688 140.29,509.311544 C147.38,514.161544 160.13,517.671544 167.61,519.421544 C167.92,519.501544 168.24,519.591544 168.54,519.701544 C171.757573,520.77224 174.205299,523.412315 175.03,526.701544 L176.56,534.991544 Z" id="Path" fill="#DB8B8B" fill-rule="nonzero"></path>
                <path d="M176.56,534.991544 L153.21,537.251544 L120.82,529.711544 L111,519.921544 L111.8,517.531544 L120.8,524.441544 C120.8,524.441544 137.38,533.441544 145.66,531.971544 L169,531.971544 L164.48,525.971544 L168.54,519.701544 C171.757573,520.77224 174.205299,523.412315 175.03,526.701544 L176.56,534.991544 Z" id="Path" fill="#000000" fill-rule="nonzero" opacity="0.1"></path>
                <path d="M169,532.731544 L164.48,526.731544 L169,519.731544 C169,519.731544 182.56,525.201544 188.58,524.451544 C194.6,523.701544 197.58,534.241544 186.33,537.261544 C175.08,540.281544 111,537.261544 111,537.261544 C111,537.261544 99.7,531.981544 111,517.671544 L120.79,525.201544 C120.79,525.201544 137.37,534.201544 145.65,532.741544 L169,532.731544 Z" id="Path" fill="#2E3037" fill-rule="nonzero"></path>
                <path d="M150.2,95.8615445 C150.2,95.8615445 114.05,99.6215445 119.32,84.5615445 C120.797144,80.2909505 121.178804,75.717913 120.43,71.2615445 C119.493812,65.7367915 117.312003,60.4977143 114.05,55.9415445 L147.94,61.2115445 C145.909057,64.605882 144.364019,68.2681921 143.35,72.0915445 C139.31,88.0815445 150.2,95.8615445 150.2,95.8615445 Z" id="Path" fill="#DB8B8B" fill-rule="nonzero"></path>
                <path d="M88.44,267.591544 C88.44,267.591544 89.19,299.981544 96.72,315.801544 L98.23,361.741544 C98.23,361.741544 95.97,403.931544 91.45,412.211544 C86.93,420.491544 101.24,490.551544 101.24,490.551544 L101.24,502.601544 C101.24,502.601544 125.34,511.601544 132.12,501.091544 L125.34,411.461544 L128.34,287.181544 L88.44,267.591544 Z" id="Path" fill="#35323E" fill-rule="nonzero"></path>
                <path d="M88.43,267.591544 C88.43,267.591544 89.18,299.981544 96.71,315.801544 L98.22,361.741544 C98.22,361.741544 95.96,403.931544 91.44,412.211544 C86.92,420.491544 101.23,490.551544 101.23,490.551544 L101.23,502.601544 C101.23,502.601544 125.33,511.601544 132.11,501.091544 L125.33,411.461544 L128.33,287.181544 L88.43,267.591544 Z" id="Path" fill="#000000" fill-rule="nonzero" opacity="0.1"></path>
                <path d="M73.37,163.651544 L68.85,175.701544 L65.09,201.311544 C64.0571723,208.549974 66.5821239,215.841796 71.87,220.891544 C80.87,229.891544 92.96,248.761544 92.96,248.761544 L107.27,205.831544 C107.27,205.831544 92.96,203.571544 95.27,193.781544 C97.58,183.991544 96.77,165.911544 96.77,165.911544 L73.37,163.651544 Z" id="Path" fill="#FF0200" fill-rule="nonzero"></path>
                <path d="M140.32,509.291544 C130.65,524.501544 115.62,515.881544 112.95,514.171544 L114.05,510.881544 L135.89,504.881544 C137.001321,506.677876 138.518659,508.188363 140.32,509.291544 L140.32,509.291544 Z" id="Path" fill="#000000" fill-rule="nonzero" opacity="0.1"></path>
                <path d="M170.54,296.971544 C169.78,307.511544 156.98,345.971544 156.98,345.971544 L147.98,377.581544 C141.489125,399.915973 138.130397,423.043403 138,446.301544 C138,454.011544 137.29,461.971544 135.12,467.951544 C129.12,484.521544 141.12,507.121544 141.12,507.121544 C130.58,525.951544 112.5,513.121544 112.5,513.121544 L112.5,501.121544 C112.5,501.121544 98.23,435.561544 102,422.761544 C105.77,409.961544 107.28,375.301544 107.28,375.301544 L107.28,312.791544 C95.2053003,300.763477 87.8673966,284.78836 86.61,267.791544 C86.43,265.321544 86.28,262.731544 86.19,260.041544 C85.58,243.041544 97.19,223.121544 101.73,216.041544 C102.83,214.321544 103.51,213.361544 103.51,213.361544 L170,239.741544 L170.15,239.801544 L170.15,242.371544 L170.15,248.071544 L170.54,296.971544 Z" id="Path" fill="#35323E" fill-rule="nonzero"></path>
                <path d="M147.94,61.2115445 C145.909057,64.605882 144.364019,68.2681921 143.35,72.0915445 C135.912301,74.9268567 127.643136,74.6274061 120.43,71.2615445 C119.493812,65.7367915 117.312003,60.4977143 114.05,55.9415445 L147.94,61.2115445 Z" id="Path" fill="#000000" fill-rule="nonzero" opacity="0.1"></path>
                <circle id="Oval" fill="#DB8B8B" fill-rule="nonzero" cx="132.88" cy="43.1315445" r="29.38"></circle>
                <path d="M170.54,248.011544 L170.21,248.071544 C138.63,254.561544 99,221.651544 99,221.651544 C100.065667,219.859867 100.982093,217.983536 101.74,216.041544 C102.84,214.321544 103.52,213.361544 103.52,213.361544 L170,239.741544 L170.17,242.371544 L170.54,248.011544 Z" id="Path" fill="#000000" fill-rule="nonzero" opacity="0.1"></path>
                <path d="M162.25,95.1115445 C162.25,95.1115445 120.07,69.5015445 106.51,80.0415445 L87.68,104.141544 C87.68,104.141544 75.63,107.911544 77.89,132.011544 L68.89,175.701544 L96,182.481544 C96,182.481544 111.82,197.541544 99,219.391544 C99,219.391544 138.92,252.531544 170.56,245.751544 L168.28,210.381544 C168.28,210.381544 161.5,190.791544 173.55,172.721544 C185.6,154.651544 174.3,137.321544 163.01,130.541544 C163,130.511544 157.73,101.881544 162.25,95.1115445 Z" id="Path" fill="#FF0200" fill-rule="nonzero"></path>
                <path d="M164.51,248.761544 C164.51,248.761544 180.33,251.761544 187.86,263.831544 C190.033809,267.455635 192.687873,270.76901 195.75,273.681544 C197.12898,274.957437 197.830736,276.805574 197.646133,278.675175 C197.461529,280.544776 196.41188,282.21998 194.81,283.201544 C188.81,286.801544 179.09,289.011544 166.81,278.891544 C145.68,261.571544 164.51,248.761544 164.51,248.761544 Z" id="Path" fill="#DB8B8B" fill-rule="nonzero"></path>
                <path d="M141.16,109.381544 C141.16,109.381544 126.1,107.871544 122.33,147.041544 C118.56,186.211544 112.54,195.241544 112.54,195.241544 C112.54,195.241544 108.77,215.581544 117.81,227.631544 C126.85,239.681544 144.17,265.381544 144.17,265.381544 C144.17,265.381544 163.01,270.661544 166.77,251.821544 L143.42,208.141544 C143.42,208.141544 139.66,193.071544 148.69,182.531544 C157.72,171.991544 164.51,101.881544 141.16,109.381544 Z" id="Path" fill="#000000" fill-rule="nonzero" opacity="0.1"></path>
                <path d="M142.67,107.161544 C142.67,107.161544 127.6,105.651544 123.84,144.821544 C120.08,183.991544 114.05,193.021544 114.05,193.021544 C114.05,193.021544 110.28,213.381544 119.32,225.381544 C128.36,237.381544 145.68,263.041544 145.68,263.041544 C145.68,263.041544 164.51,268.321544 168.28,249.491544 L144.93,205.801544 C144.93,205.801544 141.16,190.731544 150.2,180.191544 C159.24,169.651544 166,99.6215445 142.67,107.161544 Z" id="Path" fill="#FF0200" fill-rule="nonzero"></path>
                <path d="M155.1,135.381544 C155.1,135.381544 156.6,158.731544 149.82,171.541544 C143.04,184.351544 143.04,200.911544 149.82,209.951544" id="Path" fill="#000000" fill-rule="nonzero" opacity="0.1"></path>
                <path d="M158.86,106.781544 C158.86,106.781544 152.86,100.781544 135.51,100.001544 C118.16,99.2215445 110.66,94.0015445 110.66,94.0015445" id="Path" fill="#000000" fill-rule="nonzero" opacity="0.1"></path>
                <path d="M117,5.17154446 C112.42,5.73154446 107.19,7.30154446 105.54,11.6115445 C104.93,13.1915445 104.92,14.9315445 104.49,16.6115445 C102.78,23.1915445 95.38,26.2515445 90.81,31.2815445 C86.81,35.7215445 85,41.7315445 83.69,47.5815445 C79.9290553,64.356361 79.0196747,81.6447331 81,98.7215445 C82.47,111.211544 85.47,123.501544 86.32,136.051544 C87.17,148.601544 85.62,161.801544 78.76,172.341544 C75.76,176.881544 71.92,180.861544 69.83,185.851544 C74.15,189.351544 80.11,189.851544 85.67,190.041544 C92.15,190.261544 98.63,190.261544 105.11,190.041544 C108.51,189.921544 112.06,189.701544 114.99,187.981544 C117.160148,186.594284 118.945233,184.681939 120.18,182.421544 C123.88,176.131544 124.82,168.571544 124.66,161.271544 C124.5,153.971544 123.35,146.721544 123.21,139.421544 C123.14,135.421544 123.45,131.221544 125.74,127.961544 C127.39,125.611544 129.9,124.031544 132.05,122.121544 C140.12,114.981544 142.88,103.521544 143.15,92.7515445 C143.42,81.9815445 141.65,71.1915445 142.56,60.4615445 C142.91,56.2515445 144.48,51.2115445 148.62,50.3915445 C149.92,50.1315445 151.31,50.3915445 152.55,49.8915445 C155.87,48.6215445 155.55,43.9415445 156.49,40.5215445 C157.56,36.6715445 160.84,33.7015445 161.76,29.8215445 C163.93,20.7115445 152.33,9.82154446 144.76,6.66154446 C136.91,3.38154446 125.12,4.17154446 117,5.17154446 Z" id="Path" fill="#000000" fill-rule="nonzero" opacity="0.1"></path>
                <path d="M116.21,3.67154446 C111.63,4.23154446 106.4,5.80154446 104.75,10.1015445 C104.324478,11.7484403 103.990632,13.4176708 103.75,15.1015445 C102.04,21.6815445 94.63,24.7415445 90.06,29.7815445 C86.06,34.2115445 84.25,40.2215445 82.94,46.0815445 C79.1961558,62.8694016 78.3036977,80.1675375 80.3,97.2515445 C81.77,109.741544 84.77,122.041544 85.61,134.581544 C86.45,147.121544 84.92,160.331544 78.06,170.871544 C75.06,175.411544 71.22,179.391544 69.13,184.381544 C73.45,187.891544 79.41,188.381544 84.97,188.571544 C91.45,188.791544 97.93,188.791544 104.41,188.571544 C107.81,188.451544 111.36,188.241544 114.29,186.511544 C116.461549,185.129062 118.244449,183.215371 119.47,180.951544 C123.18,174.661544 124.11,167.101544 123.96,159.801544 C123.81,152.501544 122.64,145.251544 122.51,137.951544 C122.44,133.951544 122.75,129.751544 125.03,126.501544 C126.69,124.141544 129.2,122.561544 131.35,120.661544 C139.41,113.511544 142.18,102.051544 142.45,91.2815445 C142.72,80.5115445 140.94,69.7215445 141.85,58.9915445 C142.21,54.7915445 143.78,49.7415445 147.91,48.9315445 C149.22,48.6715445 150.61,48.9315445 151.85,48.4215445 C155.17,47.1515445 154.85,42.4815445 155.79,39.0515445 C156.85,35.2015445 160.13,32.2415445 161.06,28.3615445 C163.23,19.2415445 151.63,8.36154446 144.06,5.19154446 C136.15,1.89154446 124.37,2.66154446 116.21,3.67154446 Z" id="Path" fill="#35323E" fill-rule="nonzero"></path>
            </g>
        </g>
    </g>
</svg>